<?xml version="1.0" encoding="UTF-8"?> <svg xmlns="http://www.w3.org/2000/svg" id="Camada_2" data-name="Camada 2" viewBox="0 0 238 216.1"><defs><style> .cls-1 { fill: #fff; fill-rule: evenodd; } .cls-2 { fill: #33558a; } </style></defs><g id="Camada_1-2" data-name="Camada 1"><g id="Camada_2-2" data-name="Camada 2"><g id="Camada_1-2" data-name="Camada 1-2"><path class="cls-2" d="M238,49.6V0H119.2C80.1,0,46.3,10.2,17.9,31.1c-7.3,5.7-11.9,11.3-14.3,17.5S0,64.9,0,78.1v60.6c0,13.2,1.3,22.8,3.6,29.1s7,12.3,14.2,17.9c28.1,20.2,61.9,30.3,101.3,30.4,39.4,0,72.8-10.2,101-30.4,7.3-5.6,12.3-11.6,14.5-17.9,2.2-6.3,3.3-15.9,3.3-29.1v-30.6h-50.4c33.1-6.9,50.5-31.7,50.5-58.5Z"></path><path class="cls-1" d="M72.9,84.1c-1.9,1.3-2.2,1-1.9,4.1,.3,2.4,.5,3,3,3.3,.5,5.4,.8,6.1,5,9.4,2.9,2.2,6.1,3.9,9.5,5.2,16.1,6.1,33.9,5.6,50,.1,5.1-1.8,9.6-4.8,13.3-8.7,.9-1,1.2-4.2,1.3-6,2.3-.2,2.8-.9,3-3.1,.4-3.2,.2-3-1.8-4.3l1.2-8.7H71.5l1.4,8.7Z"></path><path class="cls-1" d="M79.2,110.7c-1-.5-1.7-1.2-2.7-1.6l7.2,46.5c1.3,.3,40.4,.2,45.1,.1,3.3,0,11.4,.4,14.5-.1,.6-4.5,1.5-9,2-13.3l1-6.3c.2-1.2,1-6,.9-6.4l3.2-20.3c-.8,.3-2.5,1.5-3.6,2-18.9,9.7-48.5,9.8-67.6-.6Z"></path><path class="cls-1" d="M157.4,88.6c-.8,4.1-2.7,8-5.5,11.1-3,2.8-6.4,5.1-10.2,6.7-16.7,7.4-39.6,7.3-56.3-.1-5.6-2.5-11-6-13.5-11.6-.9-2-1.6-4.1-2.1-6.2-2.8,4.8-1.2,10,1.7,13.8,8.1,10.7,27.9,14.5,41.8,14.5,12.3,0,22-2,31.4-6.2,6.6-2.8,18.4-11.4,12.7-22Z"></path></g></g></g></svg> 