<?xml version="1.0" encoding="UTF-8"?> <!-- Generator: Adobe Illustrator 24.2.1, SVG Export Plug-In . SVG Version: 6.00 Build 0) --> <svg xmlns="http://www.w3.org/2000/svg" xmlns:xlink="http://www.w3.org/1999/xlink" version="1.1" id="Camada_1" x="0px" y="0px" viewBox="0 0 577.5 16.9" style="enable-background:new 0 0 577.5 16.9;" xml:space="preserve"> <style type="text/css"> .st0{fill:#F2F2F2;stroke:#F2F2F2;stroke-width:5;stroke-linecap:round;stroke-linejoin:round;stroke-miterlimit:10;} .st1{fill:#EC6608;stroke:#EF7D00;stroke-width:5;stroke-miterlimit:10;} .st2{fill:#FFFFFF;} </style> <g> <line class="st0" x1="43.4" y1="8.5" x2="460.7" y2="8.5"></line> <line class="st1" x1="38.9" y1="8.5" x2="439" y2="8.5"></line> <g> <path class="st2" d="M497.7,6.3c0-0.1-0.2-0.3-0.3-0.3c-0.7-0.1-1.3-0.2-2-0.3c-1-0.2-2.1-0.3-3.1-0.5c-0.2,0-0.4-0.1-0.6-0.1 c-0.3-0.5-0.5-1.1-0.8-1.6c-0.5-0.9-0.9-1.8-1.4-2.6c-0.1-0.2-0.2-0.3-0.3-0.6c0-0.1-0.1-0.2-0.2-0.2c-0.1,0-0.1,0-0.2,0 s-0.2,0-0.2,0c-0.1,0-0.1,0.1-0.2,0.2c-0.3,0.6-0.6,1.2-0.9,1.7c-0.5,0.9-0.9,1.8-1.4,2.7c-0.1,0.2-0.2,0.3-0.3,0.5 c-0.6,0.1-1.3,0.2-1.9,0.3c-1,0.2-2.1,0.3-3.1,0.5C481,6,480.7,6,480.4,6c-0.1,0.1-0.2,0.2-0.3,0.3c0,0.1,0,0.3,0.1,0.3 c0.5,0.5,0.9,1,1.4,1.5c0.8,0.8,1.5,1.5,2.3,2.4c0.2,0.2,0.3,0.3,0.4,0.4c-0.1,0.6-0.2,1.2-0.3,1.7c-0.2,1-0.3,2-0.6,3.1 c-0.1,0.3-0.1,0.5-0.1,0.7c0,0.2,0,0.3,0.2,0.3c0.1,0.1,0.3,0.1,0.4,0c0.6-0.3,1.2-0.6,1.8-0.9c0.9-0.5,1.9-0.9,2.8-1.4 c0.2-0.1,0.3-0.2,0.4-0.3c0.5,0.3,1,0.5,1.5,0.9c0.9,0.5,1.9,0.9,2.7,1.4c0.2,0.1,0.4,0.3,0.6,0.3c0.2,0.1,0.3,0.1,0.4,0 c0.1-0.1,0.2-0.3,0.2-0.3c-0.1-0.7-0.2-1.3-0.3-2c-0.2-1-0.3-2-0.5-3.1c0-0.2-0.1-0.3-0.1-0.5c0.4-0.4,0.9-0.9,1.3-1.4 c0.8-0.8,1.5-1.5,2.2-2.4c0.2-0.2,0.3-0.3,0.5-0.5C497.7,6.5,497.7,6.5,497.7,6.3z"></path> </g> <g> <path class="st2" d="M518.1,6.3c0-0.1-0.2-0.3-0.3-0.3c-0.7-0.1-1.4-0.2-2-0.3c-1-0.2-2.1-0.3-3.1-0.5c-0.2,0-0.4-0.1-0.6-0.1 c-0.3-0.5-0.5-1.1-0.8-1.6c-0.5-0.9-0.9-1.9-1.4-2.7c-0.1-0.2-0.2-0.3-0.3-0.6c0-0.1-0.1-0.2-0.2-0.2c-0.1,0-0.1,0-0.2,0 s-0.2,0-0.2,0c-0.1,0-0.1,0.1-0.2,0.2c-0.3,0.6-0.6,1.2-0.9,1.7c-0.4,0.9-0.9,1.9-1.4,2.8c-0.1,0.2-0.2,0.3-0.3,0.5 c-0.6,0.1-1.3,0.2-1.9,0.3c-1,0.2-2.1,0.3-3.1,0.5c-0.3,0-0.5,0.1-0.8,0.1c-0.1,0-0.3,0.2-0.3,0.3s0,0.3,0.1,0.3 c0.5,0.5,0.9,1,1.4,1.4c0.8,0.8,1.5,1.5,2.3,2.4c0.2,0.2,0.3,0.3,0.4,0.4c-0.1,0.6-0.2,1.2-0.3,1.7c-0.2,1-0.3,2-0.6,3.1 c-0.1,0.3-0.1,0.5-0.1,0.7c0,0.2,0,0.3,0.2,0.3c0.1,0.1,0.3,0.1,0.4,0c0.6-0.3,1.2-0.6,1.8-0.9c0.9-0.5,1.9-0.9,2.8-1.4 c0.2-0.1,0.3-0.2,0.4-0.3c0.5,0.3,1,0.5,1.5,0.9c0.9,0.5,1.9,0.9,2.7,1.4c0.2,0.1,0.4,0.3,0.6,0.3c0.2,0.1,0.3,0.1,0.4,0 c0.1-0.1,0.2-0.3,0.2-0.3c-0.1-0.7-0.2-1.3-0.3-2c-0.2-1-0.3-2-0.5-3.1c0-0.2-0.1-0.3-0.1-0.5c0.4-0.4,0.9-0.9,1.3-1.4 c0.8-0.8,1.5-1.5,2.2-2.4c0.2-0.2,0.3-0.3,0.5-0.5C518.1,6.5,518.1,6.5,518.1,6.3z"></path> </g> <g> <path class="st2" d="M537.2,6.3c0-0.1-0.2-0.3-0.3-0.3c-0.7-0.1-1.3-0.2-2-0.3c-1-0.2-2.1-0.3-3.1-0.5c-0.2,0-0.4-0.1-0.6-0.1 c-0.3-0.5-0.5-1.1-0.8-1.6c-0.5-0.9-0.9-1.8-1.4-2.6c-0.1-0.2-0.2-0.3-0.3-0.6c0-0.1-0.1-0.2-0.2-0.2s-0.1,0-0.2,0 c-0.1,0-0.2,0-0.2,0c-0.1,0-0.1,0.1-0.2,0.2c-0.3,0.6-0.6,1.2-0.9,1.7c-0.4,0.9-0.9,1.9-1.4,2.8c-0.1,0.2-0.2,0.3-0.3,0.5 c-0.6,0.1-1.3,0.2-1.9,0.3c-1,0.2-2.1,0.3-3.1,0.5c-0.3,0-0.5,0.1-0.8,0.1c-0.1,0-0.3,0.2-0.3,0.3s0,0.3,0.1,0.3 c0.5,0.5,0.9,1,1.4,1.4c0.8,0.8,1.5,1.5,2.3,2.4c0.2,0.2,0.3,0.3,0.4,0.4c-0.1,0.6-0.2,1.2-0.3,1.7c-0.2,1-0.3,2-0.6,3.1 c-0.1,0.3-0.1,0.5-0.1,0.7c0,0.2,0,0.3,0.2,0.3c0.1,0.1,0.3,0.1,0.4,0c0.6-0.3,1.2-0.6,1.8-0.9c0.9-0.5,1.9-0.9,2.8-1.4 c0.2-0.1,0.3-0.2,0.4-0.3c0.5,0.3,1,0.5,1.5,0.9c0.9,0.5,1.9,0.9,2.7,1.4c0.2,0.1,0.4,0.3,0.6,0.3s0.3,0.1,0.4,0 c0.1-0.1,0.2-0.3,0.2-0.3c-0.1-0.7-0.2-1.3-0.3-2c-0.2-1-0.3-2-0.5-3.1c0-0.2-0.1-0.3-0.1-0.5c0.4-0.4,0.9-0.9,1.3-1.4 c0.8-0.8,1.5-1.5,2.2-2.4c0.2-0.2,0.3-0.3,0.5-0.5C537.2,6.5,537.2,6.5,537.2,6.3z"></path> </g> <g> <path class="st2" d="M557.6,6.3c0-0.1-0.2-0.3-0.3-0.3c-0.7-0.1-1.3-0.2-2-0.3c-1-0.2-2.1-0.3-3.1-0.5c-0.2,0-0.4-0.1-0.6-0.1 c-0.3-0.5-0.5-1.1-0.8-1.6c-0.5-0.9-0.9-1.8-1.4-2.6c-0.1-0.2-0.2-0.3-0.3-0.6c0-0.1-0.1-0.2-0.2-0.2s-0.1,0-0.2,0 c-0.1,0-0.2,0-0.2,0c-0.1,0-0.1,0.1-0.2,0.2c-0.3,0.6-0.6,1.2-0.9,1.7c-0.4,0.9-0.9,1.9-1.4,2.8c-0.1,0.2-0.2,0.3-0.3,0.5 c-0.6,0.1-1.3,0.2-1.9,0.3c-1,0.2-2.1,0.3-3.1,0.5c-0.3,0-0.5,0.1-0.8,0.1c-0.1,0-0.3,0.2-0.3,0.3s0,0.3,0.1,0.3 c0.5,0.5,0.9,1,1.4,1.4c0.8,0.8,1.5,1.5,2.3,2.4c0.2,0.2,0.3,0.3,0.4,0.4c-0.1,0.6-0.2,1.2-0.3,1.7c-0.2,1-0.3,2-0.6,3.1 c-0.1,0.3-0.1,0.5-0.1,0.7c0,0.2,0,0.3,0.2,0.3c0.1,0.1,0.3,0.1,0.4,0c0.6-0.3,1.2-0.6,1.8-0.9c0.9-0.5,1.9-0.9,2.8-1.4 c0.2-0.1,0.3-0.2,0.4-0.3c0.5,0.3,1,0.5,1.5,0.9c0.9,0.5,1.9,0.9,2.7,1.4c0.2,0.1,0.4,0.3,0.6,0.3s0.3,0.1,0.4,0 c0.1-0.1,0.2-0.3,0.2-0.3c-0.1-0.7-0.2-1.3-0.3-2c-0.2-1-0.3-2-0.5-3.1c0-0.2-0.1-0.3-0.1-0.5c0.4-0.4,0.9-0.9,1.3-1.4 c0.8-0.8,1.5-1.5,2.2-2.4c0.2-0.2,0.3-0.3,0.5-0.5C557.6,6.5,557.6,6.5,557.6,6.3z"></path> </g> <g> <path class="st2" d="M577.5,6.4c0-0.1-0.2-0.3-0.3-0.3c-0.7-0.1-1.3-0.2-2-0.3c-1-0.2-2.1-0.3-3.1-0.5c-0.2,0-0.4-0.1-0.6-0.1 c-0.3-0.5-0.5-1.1-0.8-1.6c-0.4-0.9-0.9-1.9-1.4-2.8c-0.1-0.2-0.2-0.3-0.3-0.6c0-0.1-0.1-0.2-0.2-0.2c-0.1,0-0.1,0-0.2,0 s-0.2,0-0.2,0c-0.1,0-0.1,0.1-0.2,0.2c-0.3,0.6-0.6,1.2-0.9,1.7c-0.4,0.9-0.9,1.9-1.4,2.8c-0.1,0.2-0.2,0.3-0.3,0.5 c-0.6,0.1-1.3,0.2-1.9,0.3c-1,0.3-2.1,0.4-3.1,0.6c-0.3,0-0.5,0.1-0.8,0.1c-0.1,0-0.3,0.2-0.3,0.3s0,0.3,0.1,0.3 c0.5,0.5,0.9,1,1.4,1.5c0.8,0.8,1.5,1.5,2.3,2.4c0.2,0.2,0.3,0.3,0.4,0.4c-0.1,0.6-0.2,1.2-0.3,1.7c-0.2,1-0.3,2-0.6,3.1 c-0.1,0.3-0.1,0.5-0.1,0.7c0,0.2,0,0.3,0.2,0.3c0.1,0.1,0.3,0.1,0.4,0c0.6-0.3,1.2-0.6,1.8-0.9c0.9-0.5,1.9-0.9,2.8-1.4 c0.2-0.1,0.3-0.2,0.4-0.3c0.5,0.3,1,0.5,1.5,0.9c0.9,0.5,1.9,0.9,2.7,1.4c0.2,0.1,0.4,0.3,0.6,0.3s0.3,0.1,0.4,0 c0.1-0.1,0.2-0.3,0.2-0.3c-0.1-0.7-0.2-1.3-0.3-2c-0.2-1-0.3-2-0.5-3.1c0-0.2-0.1-0.3-0.1-0.5c0.4-0.4,0.9-0.9,1.3-1.4 c0.8-0.8,1.5-1.5,2.2-2.4c0.2-0.2,0.3-0.3,0.5-0.5C577.5,6.6,577.5,6.5,577.5,6.4z"></path> </g> <path class="st2" d="M1.6,8.2c0.4,0,0.8,0.2,1.1,0.4c1,0.9,2.1,1.7,3.1,2.6c0.7,0.6,1.3,1.1,2,1.7c0.1,0.1,0.2,0.1,0.3,0 c2.7-2.8,5.5-5.5,8.2-8.2c1.4-1.4,2.8-2.8,4.1-4.2C21,0,21.6-0.1,22.2,0.1c0.6,0.2,1,0.8,1,1.4c0,0.5-0.1,0.8-0.5,1.2 c-0.3,0.3-0.6,0.6-0.9,0.9c-2.2,2.3-4.5,4.5-6.7,6.8c-1.9,2-3.9,3.9-5.8,5.9c-0.7,0.7-1.6,0.8-2.4,0.1c-2.1-1.8-4.1-3.5-6.2-5.3 c-0.9-0.7-0.9-1.8-0.1-2.5C0.9,8.3,1.2,8.2,1.6,8.2z"></path> </g> </svg> 