<?xml version="1.0" encoding="UTF-8"?> <svg xmlns="http://www.w3.org/2000/svg" viewBox="0 0 454.13 214.79"><defs><style>.cls-1{fill:#ff1a06;}</style></defs><g id="Camada_2" data-name="Camada 2"><g id="Camada_1-2" data-name="Camada 1"><path d="M41.53,95.44c-2-2-3-4.84-3-8.53V72.79h5.83v13.9q0,6.77,5.62,6.77a5.26,5.26,0,0,0,4.17-1.64q1.44-1.63,1.44-5.13V72.79h5.76V86.91c0,3.69-1,6.54-3,8.53s-4.81,3-8.41,3S43.53,97.43,41.53,95.44Z"></path><path d="M97.29,80.48q2.14,2.14,2.14,6.43V98H93.82V87.77a5.23,5.23,0,0,0-1-3.44,3.37,3.37,0,0,0-2.72-1.13A4,4,0,0,0,87,84.47a5.52,5.52,0,0,0-1.15,3.8V98H80.24V87.77q0-4.58-3.67-4.57a4,4,0,0,0-3.09,1.27,5.52,5.52,0,0,0-1.16,3.8V98H66.71V78.62h5.36v2.24A7,7,0,0,1,74.72,79a8.75,8.75,0,0,1,3.44-.65,8.3,8.3,0,0,1,3.7.81,6.53,6.53,0,0,1,2.67,2.35,8,8,0,0,1,3-2.33,9.4,9.4,0,0,1,4-.83A7.81,7.81,0,0,1,97.29,80.48Z"></path><path d="M119.2,80.48c1.6,1.43,2.41,3.58,2.41,6.46V98h-5.26V95.58c-1.06,1.8-3,2.7-5.9,2.7a9.21,9.21,0,0,1-3.87-.75,5.72,5.72,0,0,1-2.5-2.09,5.43,5.43,0,0,1-.87-3,5,5,0,0,1,2-4.24c1.35-1,3.44-1.55,6.28-1.55H116a3.59,3.59,0,0,0-1.11-2.83,5,5,0,0,0-3.35-1,9.58,9.58,0,0,0-3,.49A7.91,7.91,0,0,0,106,84.6l-2-3.92a12.09,12.09,0,0,1,3.8-1.73,16.92,16.92,0,0,1,4.55-.61Q116.78,78.34,119.2,80.48Zm-4.79,13.35a3.61,3.61,0,0,0,1.58-2v-2h-3.85c-2.31,0-3.46.76-3.46,2.27a2,2,0,0,0,.85,1.71,3.8,3.8,0,0,0,2.32.63A4.87,4.87,0,0,0,114.41,93.83Z"></path><path d="M155.73,89.89H141.08A4.63,4.63,0,0,0,143,92.74a6.27,6.27,0,0,0,3.68,1,7.45,7.45,0,0,0,2.68-.45,6.55,6.55,0,0,0,2.18-1.42l3,3.24q-2.73,3.13-8,3.13A12.53,12.53,0,0,1,140.69,97a9.35,9.35,0,0,1-3.89-3.54,10.39,10.39,0,0,1,0-10.28,9.48,9.48,0,0,1,3.71-3.56,11.48,11.48,0,0,1,10.42-.06,9,9,0,0,1,3.62,3.51,10.56,10.56,0,0,1,1.31,5.31C155.84,88.45,155.81,89,155.73,89.89Zm-13.14-6.22a4.57,4.57,0,0,0-1.58,3h9.54A4.67,4.67,0,0,0,149,83.68a4.76,4.76,0,0,0-3.17-1.1A4.87,4.87,0,0,0,142.59,83.67Z"></path><path d="M190.17,80.48q2.15,2.14,2.14,6.43V98h-5.62V87.77a5.23,5.23,0,0,0-.95-3.44A3.37,3.37,0,0,0,183,83.2a4,4,0,0,0-3.13,1.27,5.52,5.52,0,0,0-1.15,3.8V98h-5.62V87.77q0-4.58-3.67-4.57a4,4,0,0,0-3.1,1.27,5.57,5.57,0,0,0-1.15,3.8V98h-5.61V78.62H165v2.24A7,7,0,0,1,167.6,79a8.73,8.73,0,0,1,3.43-.65,8.32,8.32,0,0,1,3.71.81,6.59,6.59,0,0,1,2.67,2.35,8,8,0,0,1,3-2.33,9.37,9.37,0,0,1,4-.83A7.81,7.81,0,0,1,190.17,80.48Z"></path><path d="M213.71,79.58a8.91,8.91,0,0,1,3.48,3.49,11.53,11.53,0,0,1,0,10.48A8.91,8.91,0,0,1,213.71,97a9.82,9.82,0,0,1-4.91,1.24A7.47,7.47,0,0,1,203,95.94v9h-5.62V78.62h5.36v2.24a7.46,7.46,0,0,1,6.09-2.52A9.82,9.82,0,0,1,213.71,79.58Zm-2.34,12.63a6.18,6.18,0,0,0,0-7.81,5.06,5.06,0,0,0-7.09,0,6.18,6.18,0,0,0,0,7.81,5,5,0,0,0,7.09,0Z"></path><path d="M230.27,79.06a10.11,10.11,0,0,1,3.94-.72v5.18c-.62,0-1-.07-1.26-.07a5.17,5.17,0,0,0-3.78,1.35,5.46,5.46,0,0,0-1.36,4V98h-5.62V78.62h5.36v2.56A6.33,6.33,0,0,1,230.27,79.06Z"></path><path d="M256.25,89.89H241.59a4.6,4.6,0,0,0,1.88,2.85,6.21,6.21,0,0,0,3.67,1,7.42,7.42,0,0,0,2.68-.45A6.45,6.45,0,0,0,252,91.91l3,3.24c-1.83,2.09-4.49,3.13-8,3.13A12.53,12.53,0,0,1,241.2,97a9.35,9.35,0,0,1-3.89-3.54,10.39,10.39,0,0,1,0-10.28A9.48,9.48,0,0,1,241,79.62a11.48,11.48,0,0,1,10.42-.06A9,9,0,0,1,255,83.07a10.46,10.46,0,0,1,1.31,5.31C256.35,88.45,256.32,89,256.25,89.89Zm-13.14-6.22a4.53,4.53,0,0,0-1.59,3h9.54a4.67,4.67,0,0,0-1.58-2.94,4.76,4.76,0,0,0-3.17-1.1A4.83,4.83,0,0,0,243.11,83.67Z"></path><path d="M261.9,97.69a12.34,12.34,0,0,1-3.67-1.5l1.87-4a11.9,11.9,0,0,0,3.13,1.35,13,13,0,0,0,3.6.52c2.38,0,3.56-.58,3.56-1.76a1.25,1.25,0,0,0-1-1.19,14.52,14.52,0,0,0-3-.61,29.09,29.09,0,0,1-3.92-.83A6,6,0,0,1,259.83,88a4.71,4.71,0,0,1-1.14-3.39,5.31,5.31,0,0,1,1.07-3.26,6.87,6.87,0,0,1,3.09-2.21,13.21,13.21,0,0,1,4.81-.79,18.82,18.82,0,0,1,4.08.45A11.37,11.37,0,0,1,275.11,80l-1.87,4a11.22,11.22,0,0,0-5.58-1.45,5.62,5.62,0,0,0-2.7.51,1.49,1.49,0,0,0-.9,1.29,1.27,1.27,0,0,0,1,1.26,17.47,17.47,0,0,0,3.1.69,34.19,34.19,0,0,1,3.88.84,5.92,5.92,0,0,1,2.63,1.64,4.62,4.62,0,0,1,1.12,3.31,5.12,5.12,0,0,1-1.08,3.21,7,7,0,0,1-3.15,2.18,14.2,14.2,0,0,1-4.92.77A19.06,19.06,0,0,1,261.9,97.69Z"></path><path d="M293.94,80.48q2.42,2.14,2.41,6.46V98h-5.26V95.58q-1.57,2.7-5.9,2.7a9.21,9.21,0,0,1-3.87-.75,5.77,5.77,0,0,1-2.5-2.09,5.43,5.43,0,0,1-.87-3,5,5,0,0,1,2-4.24c1.35-1,3.45-1.55,6.28-1.55h4.46a3.59,3.59,0,0,0-1.11-2.83,4.93,4.93,0,0,0-3.35-1,9.58,9.58,0,0,0-3,.49,8,8,0,0,0-2.54,1.31l-2-3.92a12.19,12.19,0,0,1,3.8-1.73,17,17,0,0,1,4.56-.61Q291.53,78.34,293.94,80.48Zm-4.79,13.35a3.61,3.61,0,0,0,1.58-2v-2h-3.85c-2.3,0-3.45.76-3.45,2.27a2,2,0,0,0,.84,1.71,3.82,3.82,0,0,0,2.32.63A4.84,4.84,0,0,0,289.15,93.83Z"></path><path d="M313.41,97.69a12.45,12.45,0,0,1-3.67-1.5l1.87-4a12,12,0,0,0,3.13,1.35,13.11,13.11,0,0,0,3.6.52c2.38,0,3.57-.58,3.57-1.76a1.26,1.26,0,0,0-1-1.19,14.67,14.67,0,0,0-3-.61,29.28,29.28,0,0,1-3.93-.83A6.1,6.1,0,0,1,311.34,88a4.75,4.75,0,0,1-1.13-3.39,5.3,5.3,0,0,1,1.06-3.26,6.91,6.91,0,0,1,3.1-2.21,13.12,13.12,0,0,1,4.8-.79,18.91,18.91,0,0,1,4.09.45A11.3,11.3,0,0,1,326.62,80l-1.87,4a11.16,11.16,0,0,0-5.58-1.45,5.62,5.62,0,0,0-2.7.51,1.49,1.49,0,0,0-.9,1.29,1.28,1.28,0,0,0,1,1.26,17.47,17.47,0,0,0,3.1.69,34.93,34.93,0,0,1,3.89.84,6,6,0,0,1,2.63,1.64,4.66,4.66,0,0,1,1.11,3.31,5.12,5.12,0,0,1-1.08,3.21A7,7,0,0,1,323,97.51a14.18,14.18,0,0,1-4.91.77A19.14,19.14,0,0,1,313.41,97.69Z"></path><path d="M334.45,97a9.45,9.45,0,0,1-3.79-3.54,10.36,10.36,0,0,1,0-10.3,9.45,9.45,0,0,1,3.79-3.54,12.39,12.39,0,0,1,11,0,9.62,9.62,0,0,1,3.78,3.54,10.43,10.43,0,0,1,0,10.3A9.62,9.62,0,0,1,345.42,97a12.39,12.39,0,0,1-11,0Zm9-4.79a6.18,6.18,0,0,0,0-7.81A4.68,4.68,0,0,0,339.94,83a4.73,4.73,0,0,0-3.56,1.45,6.15,6.15,0,0,0,0,7.81,4.71,4.71,0,0,0,3.56,1.46A4.65,4.65,0,0,0,343.49,92.21Zm-2-21.25h6L341,76.14H336.6Z"></path><path d="M354.31,71.28h5.61V98h-5.61Z"></path><path d="M365.43,75a3.06,3.06,0,0,1,0-4.47,3.57,3.57,0,0,1,2.52-.9,3.64,3.64,0,0,1,2.52.87,2.74,2.74,0,0,1,1,2.15,3.07,3.07,0,0,1-1,2.33,3.53,3.53,0,0,1-2.52.91A3.61,3.61,0,0,1,365.43,75Zm-.29,3.59h5.62V98h-5.62Z"></path><path d="M395.71,71.28V98h-5.37V95.76a7.39,7.39,0,0,1-6,2.52,10.09,10.09,0,0,1-4.95-1.22,8.75,8.75,0,0,1-3.48-3.5,11.59,11.59,0,0,1,0-10.51,8.79,8.79,0,0,1,3.48-3.49,10.09,10.09,0,0,1,4.95-1.22,7.35,7.35,0,0,1,5.79,2.34v-9.4ZM388.8,92.21a6.15,6.15,0,0,0,0-7.81,5.07,5.07,0,0,0-7.1,0,6.15,6.15,0,0,0,0,7.81,5,5,0,0,0,7.1,0Z"></path><path d="M415.62,80.48c1.6,1.43,2.41,3.58,2.41,6.46V98h-5.26V95.58q-1.57,2.7-5.9,2.7a9.21,9.21,0,0,1-3.87-.75,5.72,5.72,0,0,1-2.5-2.09,5.43,5.43,0,0,1-.87-3,5,5,0,0,1,2-4.24c1.35-1,3.44-1.55,6.28-1.55h4.46a3.59,3.59,0,0,0-1.11-2.83,4.93,4.93,0,0,0-3.35-1,9.58,9.58,0,0,0-3,.49,7.91,7.91,0,0,0-2.54,1.31l-2-3.92a12.09,12.09,0,0,1,3.8-1.73,16.92,16.92,0,0,1,4.55-.61Q413.2,78.34,415.62,80.48Zm-4.79,13.35a3.61,3.61,0,0,0,1.58-2v-2h-3.85c-2.3,0-3.46.76-3.46,2.27a2,2,0,0,0,.85,1.71,3.8,3.8,0,0,0,2.32.63A4.87,4.87,0,0,0,410.83,93.83Z"></path><path d="M57.2,133.09H42.55a4.63,4.63,0,0,0,1.87,2.85,6.27,6.27,0,0,0,3.68,1,7.45,7.45,0,0,0,2.68-.45A6.55,6.55,0,0,0,53,135.11l3,3.24q-2.73,3.14-8,3.13a12.5,12.5,0,0,1-5.79-1.28,9.35,9.35,0,0,1-3.89-3.54,9.7,9.7,0,0,1-1.37-5.15,9.88,9.88,0,0,1,1.35-5.13A9.48,9.48,0,0,1,42,122.82a11.48,11.48,0,0,1,10.42-.06A9,9,0,0,1,56,126.27a10.56,10.56,0,0,1,1.31,5.31C57.31,131.65,57.28,132.16,57.2,133.09Zm-13.14-6.22a4.57,4.57,0,0,0-1.58,2.95H52a4.67,4.67,0,0,0-1.58-2.94,4.75,4.75,0,0,0-3.17-1.09A4.87,4.87,0,0,0,44.06,126.87Z"></path><path d="M75,140.2a9.55,9.55,0,0,1-3.85-3.54,10.24,10.24,0,0,1,0-10.3A9.55,9.55,0,0,1,75,122.82a11.8,11.8,0,0,1,5.56-1.28A10.72,10.72,0,0,1,86,122.82a7.57,7.57,0,0,1,3.33,3.65l-4.36,2.34a4.74,4.74,0,0,0-4.35-2.66,5,5,0,0,0-3.64,1.43,6.07,6.07,0,0,0,0,7.85,4.93,4.93,0,0,0,3.64,1.44,4.69,4.69,0,0,0,4.35-2.66l4.36,2.37A7.8,7.8,0,0,1,86,140.19a10.73,10.73,0,0,1-5.35,1.29A11.8,11.8,0,0,1,75,140.2Z"></path><path d="M96,140.2a9.54,9.54,0,0,1-3.8-3.54,10.43,10.43,0,0,1,0-10.3,9.54,9.54,0,0,1,3.8-3.54,12.39,12.39,0,0,1,11,0,9.53,9.53,0,0,1,3.77,3.54,10.36,10.36,0,0,1,0,10.3A9.53,9.53,0,0,1,107,140.2a12.39,12.39,0,0,1-11,0Zm9-4.78a6.19,6.19,0,0,0,0-7.82,5.08,5.08,0,0,0-7.11,0,6.13,6.13,0,0,0,0,7.82,5.08,5.08,0,0,0,7.11,0Z"></path><path d="M146.43,123.68q2.15,2.14,2.14,6.43v11.08H143V131a5.23,5.23,0,0,0-1-3.44,3.37,3.37,0,0,0-2.72-1.13,4,4,0,0,0-3.13,1.27,5.52,5.52,0,0,0-1.15,3.8v9.72h-5.62V131q0-4.57-3.67-4.57a4,4,0,0,0-3.09,1.27,5.52,5.52,0,0,0-1.16,3.8v9.72h-5.61V121.83h5.36v2.23a7,7,0,0,1,2.65-1.87,8.73,8.73,0,0,1,3.43-.65,8.32,8.32,0,0,1,3.71.81,6.48,6.48,0,0,1,2.67,2.36,7.89,7.89,0,0,1,3-2.34,9.37,9.37,0,0,1,4-.83A7.81,7.81,0,0,1,146.43,123.68Z"></path><path d="M167.6,140.2a9.58,9.58,0,0,1-3.86-3.54,10.3,10.3,0,0,1,0-10.3,9.58,9.58,0,0,1,3.86-3.54,11.78,11.78,0,0,1,5.56-1.28,10.66,10.66,0,0,1,5.34,1.28,7.48,7.48,0,0,1,3.33,3.65l-4.35,2.34a4.75,4.75,0,0,0-4.36-2.66,5,5,0,0,0-3.63,1.43,6.07,6.07,0,0,0,0,7.85,4.92,4.92,0,0,0,3.63,1.44,4.71,4.71,0,0,0,4.36-2.66l4.35,2.37a7.7,7.7,0,0,1-3.33,3.61,10.66,10.66,0,0,1-5.34,1.29A11.78,11.78,0,0,1,167.6,140.2Z"></path><path d="M193.16,122.26a10.07,10.07,0,0,1,3.94-.72v5.18c-.63,0-1-.07-1.26-.07a5.14,5.14,0,0,0-3.78,1.35,5.46,5.46,0,0,0-1.37,4.05v9.14h-5.62V121.83h5.37v2.55A6.28,6.28,0,0,1,193.16,122.26Z"></path><path d="M219.13,133.09H204.48a4.58,4.58,0,0,0,1.87,2.85,6.24,6.24,0,0,0,3.67,1,7.51,7.51,0,0,0,2.69-.45,6.51,6.51,0,0,0,2.17-1.42l3,3.24c-1.82,2.09-4.49,3.13-8,3.13a12.54,12.54,0,0,1-5.8-1.28,9.41,9.41,0,0,1-3.89-3.54,10.43,10.43,0,0,1,0-10.28,9.45,9.45,0,0,1,3.7-3.56,11.51,11.51,0,0,1,10.43-.06,9,9,0,0,1,3.61,3.51,10.46,10.46,0,0,1,1.32,5.31C219.24,131.65,219.2,132.16,219.13,133.09ZM206,126.87a4.57,4.57,0,0,0-1.58,2.95H214a4.68,4.68,0,0,0-1.59-2.94,4.73,4.73,0,0,0-3.17-1.09A4.82,4.82,0,0,0,206,126.87Z"></path><path d="M242.71,114.48v26.71h-5.36V139a7.42,7.42,0,0,1-6,2.52,10.09,10.09,0,0,1-5-1.22,8.75,8.75,0,0,1-3.48-3.5,11.59,11.59,0,0,1,0-10.51,8.79,8.79,0,0,1,3.48-3.49,10.09,10.09,0,0,1,5-1.22,7.35,7.35,0,0,1,5.79,2.34v-9.4Zm-6.91,20.94a6.16,6.16,0,0,0,0-7.82,5.06,5.06,0,0,0-7.09,0,6.13,6.13,0,0,0,0,7.82,5.06,5.06,0,0,0,7.09,0Z"></path><path d="M248.18,118.23a3.06,3.06,0,0,1,0-4.47,3.57,3.57,0,0,1,2.52-.9,3.64,3.64,0,0,1,2.52.87,2.74,2.74,0,0,1,1,2.15,3.07,3.07,0,0,1-1,2.33,4,4,0,0,1-5,0Zm-.29,3.6h5.62v19.36h-5.62Z"></path><path d="M275.09,122.78a8.83,8.83,0,0,1,3.47,3.49,11.45,11.45,0,0,1,0,10.48,8.83,8.83,0,0,1-3.47,3.49,9.84,9.84,0,0,1-4.91,1.24,7.45,7.45,0,0,1-6.09-2.52v2.23h-5.36V114.48h5.62v9.4a7.46,7.46,0,0,1,5.83-2.34A9.84,9.84,0,0,1,275.09,122.78Zm-2.34,12.64a6.19,6.19,0,0,0,0-7.82,5.06,5.06,0,0,0-7.09,0,6.19,6.19,0,0,0,0,7.82,5.06,5.06,0,0,0,7.09,0Z"></path><path d="M283.86,118.23a3.06,3.06,0,0,1,0-4.47,3.57,3.57,0,0,1,2.52-.9,3.64,3.64,0,0,1,2.52.87,2.74,2.74,0,0,1,1,2.15,3.07,3.07,0,0,1-1,2.33,4,4,0,0,1-5,0Zm-.29,3.6h5.62v19.36h-5.62Z"></path><path d="M294.4,114.48H300v26.71H294.4Z"></path><path d="M305.53,118.23a3.06,3.06,0,0,1,0-4.47,3.57,3.57,0,0,1,2.52-.9,3.64,3.64,0,0,1,2.52.87,2.74,2.74,0,0,1,1,2.15,3.07,3.07,0,0,1-1,2.33,4,4,0,0,1-5,0Zm-.29,3.6h5.62v19.36h-5.62Z"></path><path d="M335.8,114.48v26.71h-5.36V139a7.41,7.41,0,0,1-6.05,2.52,10.14,10.14,0,0,1-4.95-1.22,8.79,8.79,0,0,1-3.47-3.5,11.59,11.59,0,0,1,0-10.51,8.83,8.83,0,0,1,3.47-3.49,10.14,10.14,0,0,1,4.95-1.22,7.38,7.38,0,0,1,5.8,2.34v-9.4Zm-6.91,20.94a6.13,6.13,0,0,0,0-7.82,4.68,4.68,0,0,0-3.53-1.45,4.73,4.73,0,0,0-3.56,1.45,6.16,6.16,0,0,0,0,7.82,4.73,4.73,0,0,0,3.56,1.45A4.68,4.68,0,0,0,328.89,135.42Z"></path><path d="M355.71,123.68q2.42,2.14,2.41,6.46v11.05h-5.25v-2.41q-1.59,2.7-5.91,2.7a9.28,9.28,0,0,1-3.87-.75,5.83,5.83,0,0,1-2.5-2.09,5.5,5.5,0,0,1-.86-3,5,5,0,0,1,2-4.24c1.36-1,3.45-1.55,6.28-1.55h4.47a3.56,3.56,0,0,0-1.12-2.83,4.91,4.91,0,0,0-3.35-1,9.62,9.62,0,0,0-3,.49,8.12,8.12,0,0,0-2.54,1.31l-2-3.92a12,12,0,0,1,3.8-1.73,16.87,16.87,0,0,1,4.55-.61Q353.3,121.54,355.71,123.68ZM350.92,137a3.64,3.64,0,0,0,1.59-2v-2h-3.85c-2.31,0-3.46.76-3.46,2.27a2,2,0,0,0,.85,1.71,3.78,3.78,0,0,0,2.32.63A4.89,4.89,0,0,0,350.92,137Z"></path><path d="M383.14,114.48v26.71h-5.36V139a7.41,7.41,0,0,1-6,2.52,10.14,10.14,0,0,1-5-1.22,8.79,8.79,0,0,1-3.47-3.5,11.59,11.59,0,0,1,0-10.51,8.83,8.83,0,0,1,3.47-3.49,10.14,10.14,0,0,1,5-1.22,7.39,7.39,0,0,1,5.8,2.34v-9.4Zm-6.91,20.94a6.16,6.16,0,0,0,0-7.82,5.06,5.06,0,0,0-7.09,0,6.13,6.13,0,0,0,0,7.82,5.06,5.06,0,0,0,7.09,0Z"></path><path d="M407.19,133.09H392.54a4.58,4.58,0,0,0,1.87,2.85,6.26,6.26,0,0,0,3.67,1,7.51,7.51,0,0,0,2.69-.45,6.51,6.51,0,0,0,2.17-1.42l3,3.24c-1.82,2.09-4.49,3.13-8,3.13a12.54,12.54,0,0,1-5.8-1.28,9.41,9.41,0,0,1-3.89-3.54,10.43,10.43,0,0,1,0-10.28,9.45,9.45,0,0,1,3.7-3.56,11.51,11.51,0,0,1,10.43-.06,9,9,0,0,1,3.61,3.51,10.46,10.46,0,0,1,1.32,5.31C407.3,131.65,407.26,132.16,407.19,133.09Zm-13.14-6.22a4.57,4.57,0,0,0-1.58,2.95H402a4.68,4.68,0,0,0-1.59-2.94,4.73,4.73,0,0,0-3.17-1.09A4.82,4.82,0,0,0,394.05,126.87Z"></path><path class="cls-1" d="M26.85,28.8A14.22,14.22,0,0,1,29,36.6,14,14,0,0,1,24.9,47a14.15,14.15,0,0,1-10.35,4A14.28,14.28,0,0,1,4.12,47,13.88,13.88,0,0,1,0,36.6a24.66,24.66,0,0,1,.75-6,67.75,67.75,0,0,1,3.3-9L12.75,0H27.6L21,23.85A12.92,12.92,0,0,1,26.85,28.8Zm35.4,0a14.22,14.22,0,0,1,2.1,7.8A14,14,0,0,1,60.3,47,14.15,14.15,0,0,1,50,51a14.28,14.28,0,0,1-10.43-4A13.88,13.88,0,0,1,35.4,36.6a24.66,24.66,0,0,1,.75-6,67.75,67.75,0,0,1,3.3-9L48.15,0H63L56.4,23.85A12.92,12.92,0,0,1,62.25,28.8Z"></path><path class="cls-1" d="M391.94,186a14.15,14.15,0,0,1-2.16-7.78,14,14,0,0,1,4-10.46,15.46,15.46,0,0,1,20.78-.08,13.88,13.88,0,0,1,4.2,10.32,24.74,24.74,0,0,1-.71,6,67,67,0,0,1-3.23,9l-8.54,21.67-14.85.11,6.43-23.9A12.93,12.93,0,0,1,391.94,186Zm35.4-.26a14.19,14.19,0,0,1-2.16-7.79,14,14,0,0,1,4-10.45,15.46,15.46,0,0,1,20.78-.08,13.88,13.88,0,0,1,4.2,10.32,24.6,24.6,0,0,1-.71,6,67,67,0,0,1-3.23,9l-8.54,21.66-14.85.11,6.43-23.9A12.91,12.91,0,0,1,427.34,185.72Z"></path></g></g></svg> 