<?xml version="1.0" encoding="UTF-8"?> <svg xmlns="http://www.w3.org/2000/svg" viewBox="0 0 42.26 42.24"><defs><style>.cls-1{fill:#ff1a06;}</style></defs><g id="Camada_2" data-name="Camada 2"><g id="Camada_1-2" data-name="Camada 1"><g id="Camada_2-2" data-name="Camada 2"><g id="objects"><path class="cls-1" d="M26.62,21.1H23v13h-5.4v-13H15V16.5h2.6v-3c0-2.1,1-5.5,5.5-5.5h4v4.5h-2.9c-.5,0-1.1.2-1.1,1.3v2.7h4.1Z"></path><path class="cls-1" d="M21.12,0c2.8.1,5.7.1,8.5.2a14.34,14.34,0,0,1,7,1.8,10.62,10.62,0,0,1,5.1,7.4c.26,1.92.43,3.86.5,5.8.1,4.2,0,8.4,0,12.6a20.68,20.68,0,0,1-.8,6.5,10.6,10.6,0,0,1-8.5,7.4,37.64,37.64,0,0,1-5.8.5c-4.2.1-8.3,0-12.5,0a20.08,20.08,0,0,1-6.5-.8,10.57,10.57,0,0,1-7.4-8.5A23.93,23.93,0,0,1,0,27V14.4a20.11,20.11,0,0,1,.8-6.5A10.59,10.59,0,0,1,9.32.5a37.42,37.42,0,0,1,5.8-.5C17.22,0,19.12.1,21.12,0Zm17.3,20.8h0c-.1-1.7-.1-3.3-.1-5A38.54,38.54,0,0,0,38,11a7.15,7.15,0,0,0-6-6.7,26.31,26.31,0,0,0-5.6-.4c-3.6-.1-7.1-.1-10.7,0a30.3,30.3,0,0,0-5.3.4,7,7,0,0,0-6,5.2,14.58,14.58,0,0,0-.5,3c-.1,3.8-.1,7.6-.1,11.4,0,2.4.1,4.9.3,7.3a7,7,0,0,0,6.1,6.7,33.8,33.8,0,0,0,5.6.4c3.5.1,7,0,10.6,0a38.66,38.66,0,0,0,4.8-.3,7,7,0,0,0,4.1-1.6,7.68,7.68,0,0,0,2.8-6.1C38.32,27.2,38.32,24,38.42,20.8Z"></path></g></g></g></g></svg> 