<?xml version="1.0" encoding="UTF-8"?> <!-- Generator: Adobe Illustrator 24.2.1, SVG Export Plug-In . SVG Version: 6.00 Build 0) --> <svg xmlns="http://www.w3.org/2000/svg" xmlns:xlink="http://www.w3.org/1999/xlink" version="1.1" id="Camada_1" x="0px" y="0px" viewBox="0 0 238 216.1" style="enable-background:new 0 0 238 216.1;" xml:space="preserve"> <style type="text/css"> .st0{fill:#3A74B9;} .st1{fill-rule:evenodd;clip-rule:evenodd;fill:#FFFFFF;} </style> <path class="st0" d="M238,49.6V0H119.2C80.1,0,46.3,10.2,17.9,31.1C10.6,36.8,6,42.4,3.6,48.6C1.3,54.9,0,64.9,0,78.1v60.6 c0,13.2,1.3,22.8,3.6,29.1c2.3,6.3,7,12.3,14.2,17.9c28.1,20.2,61.9,30.4,101.3,30.4c39.4,0,72.8-10.2,101-30.4 c7.3-5.6,12.3-11.6,14.5-17.9c2.3-6.3,3.3-15.9,3.3-29.1v-30.6h-50.4C220.6,101.2,238,76.4,238,49.6z"></path> <g> <path class="st1" d="M33.4,121.9c3.1,0,53.2-0.2,56.2,0c7,0.5,10.3,10.8,23.5,6c7.9-2.9,4.2-6.8,15.3-5.7c7.9,0.8,7.6,5.9,7.5,13.5 l24.2,0.1c0.2-26.4-12.2-37.6-38.3-37.7l-2.1-7.1l-25.1-0.1l-2.6,7l-58.6,0V121.9z"></path> <path class="st1" d="M100,85.6l14.3,0.1c1.4-2.6,0.8-6.3,4.3-7.2c3.1-0.9,6.3,1.2,8.6,2c6.9,2.5,13.3-1.1,11.9-8.4 c-1.4-7.5-9.3-6-15.1-3.9c-8.5,3.1-10.8-2.8-18.1-2.3c-7.9,0.6-8.2,5.6-18,1.3c-17.3-7.7-17.4,18.9-1,12.8 C100.9,74.8,94.8,81.5,100,85.6z"></path> </g> </svg> 