<?xml version="1.0" encoding="UTF-8"?> <!-- Generator: Adobe Illustrator 24.2.1, SVG Export Plug-In . SVG Version: 6.00 Build 0) --> <svg xmlns="http://www.w3.org/2000/svg" xmlns:xlink="http://www.w3.org/1999/xlink" version="1.1" id="Camada_1" x="0px" y="0px" viewBox="0 0 238 216.1" style="enable-background:new 0 0 238 216.1;" xml:space="preserve"> <style type="text/css"> .st0{fill:#D18C44;} .st1{fill-rule:evenodd;clip-rule:evenodd;fill:#FFFFFF;} </style> <path class="st0" d="M238,49.6V0H119.2C80.1,0,46.3,10.2,17.9,31.1C10.6,36.8,6,42.4,3.6,48.6C1.3,54.9,0,64.9,0,78.1v60.6 c0,13.2,1.3,22.8,3.6,29.1c2.3,6.3,7,12.3,14.2,17.9c28.1,20.2,61.9,30.4,101.3,30.4c39.4,0,72.8-10.2,101-30.4 c7.3-5.6,12.3-11.6,14.5-17.9c2.3-6.3,3.3-15.9,3.3-29.1v-30.6h-50.4C220.6,101.2,238,76.4,238,49.6z"></path> <g> <path class="st1" d="M85,79.9c0.2,0.1,0,0,0.3,0.2c0.1,0.1,0.2,0.2,0.2,0.3c4,4.5,8.2,9,12.1,13.4c1.4,1.6,3,3.1,4.2,4.7 c-0.6,0.9-2.7,2.2-3.1,2.9c0.7,1,6.5,7.1,7.9,8.8c-0.4,0.7-2.5,2-3.2,2.9l5.9,6.7c0.7,0.8,1.3,1.4,2,2.2c2.6,2.9,5.3,5.9,8,8.8 c2.6,2.9,5.3,5.9,8,8.8c1.7,1.9,4.5,5.3,6.3,6.4c0.5,0.3,2.3,1.4,3,1.2c1.1,1,5.4,0.3,6.5,0c5.7-1.9,8.9-8,7-13.9 c-0.6-1.9-1.4-3-2.7-4.5c-1.2-1.3-2.3-2.5-3.5-3.8l-6.9-7.7c-1.4-1.4-3-3.3-4.3-4.8l-12.6-13.9c-0.8,0.3-2.5,2.3-3.4,2.7l-4-4.3 c-0.7-0.8-3.4-4-4-4.4c-0.5,0.2-2.7,2.2-3.2,2.7c-0.6-0.3-2-2.1-2.6-2.8c-0.3-0.4-2.3-2.3-2.4-2.8c-0.4-0.2-0.6-0.5-0.8-0.8 c-0.6-0.4-1.7-1.8-2.3-2.5l-6.8-7.6c-1.2-1.2-2.3-2.5-3.5-3.9c-1.7-2.1-5-5.4-7-7.7c-0.6-0.6-1.1-1.3-1.7-1.9 c-0.6-0.6-1.2-1.3-1.7-2l0.9-0.8c-0.3-0.7-1.1-1.3-1.6-1.9c-0.9-1-0.8-0.7-2.4-1.3c-1.5-0.6-4.1-1.6-5.6-2c0.2,1.6,0.8,4,1.2,5.7 c0.4,1.7,0.1,1.6,1,2.5c0.5,0.5,1.2,1.6,1.8,1.9c0.3-0.4,0.6-0.5,0.9-0.9c0.5,0.3,2.5,2.6,3.1,3.3c2.3,2.5,5.3,6.1,7.4,8.2 C84,78.6,84.7,79.2,85,79.9z"></path> <path class="st1" d="M87.4,117.6c-0.6,0.3-1.4,1.1-1.8,1.5c-0.7-0.1-1.6-0.5-2.3-0.6c-8-1.7-16,2.6-18.4,10.5 c-1.2,3.9-0.5,5.9,0.1,9.3c1.2-0.3,11.2-10.2,12.6-10.8l5.9,6.4c0.4,0.4,1.5,1.8,2,2.1c-0.4,0.6-5.3,4.8-6.2,5.6 c-1.7,1.4-4.7,4-6.2,5.5c0.8,0.7,3.2,1.3,4.5,1.5c12.1,1.1,19.6-8.9,17-19.1c1.3-1.6,11.1-9.5,12-10.6l-5.1-5.7 c0.4-0.7,2.6-2.2,3.2-3c-0.2-0.5-3.3-3.8-3.8-4.2l-13.1,11.3C87.5,117.3,87.6,117.2,87.4,117.6z"></path> <path class="st1" d="M140.8,93.4c8.3,0.9,15.1-4.4,16.8-11.6c0.3-1.4,0.5-3.1,0.4-4.5c0-0.5-0.2-1.4-0.3-2.1 c-0.1-0.6-0.4-1.3-0.4-1.8c-0.5-0.1-0.5,0-0.9,0.4c-0.3,0.3-0.5,0.4-0.9,0.6c-0.1,0.2,0,0-0.1,0.2l-7.9,7.1 c-0.6,0.5-2.2,2.1-2.7,2.4c-0.5-0.3-1.6-1.6-2.1-2.2l-5.9-6.4c0.3-0.6,2.4-2.2,3.1-2.8l9.3-8.2l-0.4-0.3c-1.9-0.9-5-1.3-7.1-1.3 c-3.1,0.4-4.1,0.5-6.6,1.8c-1.9,0.9-3.5,2.3-4.8,3.9c-2.2,2.8-3.4,6.2-3.3,10c0,1.4,0.3,2.4,0.5,3.6l-7.2,6.3 c-0.8,0.7-6.9,5.9-7.3,6.5c0.3,0.5,3.4,3.9,3.9,4.3c0.5-0.2,2.6-2.1,3.2-2.8c0.7,0.4,4.2,4.6,5.3,5.6c0.6-0.2,10.7-9.2,11.2-9.8 C137.2,92.5,138.9,93.1,140.8,93.4z"></path> </g> </svg> 