<?xml version="1.0" encoding="UTF-8"?> <!-- Generator: Adobe Illustrator 24.2.1, SVG Export Plug-In . SVG Version: 6.00 Build 0) --> <svg xmlns="http://www.w3.org/2000/svg" xmlns:xlink="http://www.w3.org/1999/xlink" version="1.1" id="Camada_1" x="0px" y="0px" viewBox="0 0 238 216.1" style="enable-background:new 0 0 238 216.1;" xml:space="preserve"> <style type="text/css"> .st0{fill-rule:evenodd;clip-rule:evenodd;fill:#020203;} .st1{fill-rule:evenodd;clip-rule:evenodd;fill:#FFFFFF;stroke:#020203;stroke-width:0.216;stroke-miterlimit:22.9256;} </style> <g> <g> <path class="st0" d="M0,73.4V143c0,18.6,2.9,30.7,16.7,42c2.2,1.8,4.6,3.3,7,4.9l7.2,4.4c3.8,2.1,7.6,4.5,11.7,6.1 c1.5,0.6,2.4,1.2,4,1.8c3,1.2,5.6,2.2,8.6,3.4c5.6,2.2,11.9,3.9,18.1,5.5c8.6,2.2,12,2.3,19.9,3.6c3.1,0.5,7.6,0.7,10.8,1.1 c3.4,0.5,14.4,0.4,18.3,0.4c15.4,0,38.3-3.1,52.2-7.8l25.9-10.5c4.9-3,9.4-4.8,15.2-9l10.1-7.9c0.6-0.6,0.9-0.9,1.5-1.4 c4.5-4.6,8-10.9,9.2-18.2c2.4-14.4,1.7-37.1,1.7-52.5c0-1.5-2.5-1-5.2-1l-42.9-0.3c1.7,0,5.9-1.5,7.6-2.1 c7.3-2.5,12.6-5.7,18.7-10.3c3.7-2.7,7.9-7.4,10.5-11.1c0.5-0.6,0.6-0.8,1.1-1.5c10.1-14.8,10.1-26.7,10.1-43.5c0-13,0-26,0-39 c-25.9,0-51.8,0-77.7,0c-42.4,0-62.5-2.6-98.4,8.3c-11.1,3.4-23.3,9.4-33.3,15.4C21.7,28,19.2,30,13.2,35.1 c-0.1,0-0.1,0.1-0.2,0.1c-0.1,0-0.1,0.1-0.2,0.1C2.2,44.6,0,59.2,0,73.4z"></path> </g> <path class="st1" d="M84.2,128.3l4.3,16.8c1.1,4.3,4.3,3,7.2,2.3c4.5-1.1,2.6-5.3,1.6-9.1c-0.5-2.1-2.9-12.7-3.8-13.7 c-2.1,0.1-6.1,1.4-8.3,2C84,126.8,83.9,127.2,84.2,128.3z"></path> <path class="st1" d="M111.3,115.2c1.3,0.1,7.2-1.4,8.3-2.2c0.1-1.2-7.3-30.6-8.1-32c-1.2-0.2-3.3,0.5-4.7,0.9 c-4.9,1.2-4.2-0.6-0.8,12.7C106.7,97.7,110.4,113.8,111.3,115.2z"></path> <path class="st1" d="M76.9,89.5c-7.6,2.3-13.5,7.1-14.6,14.5c-1.1,7.9,4,15.4,10.6,17.8c4.8,1.7,10,0.7,15.8-0.6 c2-0.5,17.2-4.1,17.6-4.8c0.6-0.8-1.5-7.4-1.9-8.9c-0.8-3-1.5-6.1-2.3-9.1L98.8,85c-0.5-1.5-2.3-0.5-3.8-0.1 C89,86.4,82.8,87.8,76.9,89.5z"></path> <path class="st1" d="M132.2,59c-1,0.7-12,13.2-13.6,14.9c-4,4.5-3.5,2-0.6,13.5c0.6,2.2,6.4,26,7,26.8c0.4,0.5,2.8,1.2,3.7,1.5 l19,6.7c1.7,0.6,2.8-1.1,2.8-2.5c0-1.5-12.2-48.8-13.5-53.8c-0.4-1.5-0.8-4-1.4-5.3C135,59.6,133.4,58.1,132.2,59z"></path> </g> </svg> 