<?xml version="1.0" encoding="UTF-8"?> <!-- Generator: Adobe Illustrator 24.2.1, SVG Export Plug-In . SVG Version: 6.00 Build 0) --> <svg xmlns="http://www.w3.org/2000/svg" xmlns:xlink="http://www.w3.org/1999/xlink" version="1.1" id="Camada_1" x="0px" y="0px" viewBox="0 0 238 216.1" style="enable-background:new 0 0 238 216.1;" xml:space="preserve"> <style type="text/css"> .st0{fill:#F7A942;} .st1{fill-rule:evenodd;clip-rule:evenodd;fill:#FFFFFF;} </style> <path class="st0" d="M238,49.6V0H119.2C80.1,0,46.3,10.2,17.9,31.1C10.6,36.8,6,42.4,3.6,48.6C1.3,54.9,0,64.9,0,78.1v60.6 c0,13.2,1.3,22.8,3.6,29.1c2.3,6.3,7,12.3,14.2,17.9c28.1,20.2,61.9,30.4,101.3,30.4c39.4,0,72.8-10.2,101-30.4 c7.3-5.6,12.3-11.6,14.5-17.9c2.3-6.3,3.3-15.9,3.3-29.1v-30.6h-50.4C220.6,101.2,238,76.4,238,49.6z"></path> <g> <path class="st1" d="M135.5,141.6h-10.1c-5.2,0-9.4-4.2-9.4-9.4v-30.9h-5.9V67h25.3c5.2,0,9.4,4.2,9.4,9.4v55.8 C144.8,137.4,140.6,141.6,135.5,141.6L135.5,141.6z M130.3,128c-2.2,0-4,1.8-4,4c0,2.2,1.8,4,4,4c2.2,0,4-1.8,4-4 C134.3,129.8,132.5,128,130.3,128L130.3,128z M134.7,101.1c-2.2,0-4,1.8-4,4c0,2.2,1.8,4,4,4c2.2,0,4-1.8,4-4 C138.7,102.8,136.9,101.1,134.7,101.1L134.7,101.1z M130.2,72.7c-2.2,0-4,1.8-4,4c0,2.2,1.8,4,4,4c2.2,0,4-1.8,4-4 C134.2,74.5,132.4,72.7,130.2,72.7z"></path> <path class="st1" d="M98.2,61.1h5.6c1.8,0,3.3,1.5,3.3,3.3v1H95v-1C95,62.5,96.4,61.1,98.2,61.1L98.2,61.1z M107.1,68.6v31.6H95 V68.6H107.1z"></path> <path class="st1" d="M98.2,147.5h5.6c1.8,0,3.3-1.5,3.3-3.3v-1H95v1C95,146.1,96.4,147.5,98.2,147.5L98.2,147.5z M107.1,140v-31.6 H95V140H107.1z"></path> <rect x="95" y="102.4" class="st1" width="12.3" height="3.6"></rect> <path class="st1" d="M66.8,67h10.1c5.2,0,9.4,4.2,9.4,9.4v30.9h5.9v34.4H66.8c-5.2,0-9.4-4.2-9.4-9.4V76.4 C57.4,71.2,61.6,67,66.8,67L66.8,67z M71.9,80.6c2.2,0,4-1.8,4-4c0-2.2-1.8-4-4-4c-2.2,0-4,1.8-4,4C67.9,78.8,69.7,80.6,71.9,80.6 L71.9,80.6z M67.5,107.6c2.2,0,4-1.8,4-4s-1.8-4-4-4s-4,1.8-4,4S65.3,107.6,67.5,107.6L67.5,107.6z M72,135.9c2.2,0,4-1.8,4-4 c0-2.2-1.8-4-4-4s-4,1.8-4,4C68,134.1,69.8,135.9,72,135.9z"></path> </g> </svg> 