<?xml version="1.0" encoding="UTF-8"?> <!-- Generator: Adobe Illustrator 24.2.1, SVG Export Plug-In . SVG Version: 6.00 Build 0) --> <svg xmlns="http://www.w3.org/2000/svg" xmlns:xlink="http://www.w3.org/1999/xlink" version="1.1" id="Camada_1" x="0px" y="0px" viewBox="0 0 238 216.1" style="enable-background:new 0 0 238 216.1;" xml:space="preserve"> <style type="text/css"> .st0{fill:#EB741B;} .st1{fill-rule:evenodd;clip-rule:evenodd;fill:#FFFFFF;} </style> <path class="st0" d="M238,49.6V0H119.2C80.1,0,46.3,10.2,17.9,31.1C10.6,36.8,6,42.4,3.6,48.6C1.3,54.9,0,64.9,0,78.1v60.6 c0,13.2,1.3,22.8,3.6,29.1c2.3,6.3,7,12.3,14.2,17.9c28.1,20.2,61.9,30.4,101.3,30.4c39.4,0,72.8-10.2,101-30.4 c7.3-5.6,12.3-11.6,14.5-17.9c2.3-6.3,3.3-15.9,3.3-29.1v-30.6h-50.4C220.6,101.2,238,76.4,238,49.6z"></path> <path class="st1" d="M88.3,55h50.8c2.5,0,4.5,2,4.5,4.5v96.1c0,2.5-2,4.5-4.5,4.5H88.3c-2.5,0-4.5-2-4.5-4.5V59.5 C83.8,57,85.8,55,88.3,55L88.3,55z M113.7,60c-1.6,0-2.9,1.2-3,2.7h-7.5c-0.6,0-1.2,0.5-1.2,1.2v1.8c0,0.6,0.5,1.2,1.2,1.2h21 c0.6,0,1.2-0.5,1.2-1.2v-1.8c0-0.6-0.5-1.2-1.2-1.2h-7.5C116.6,61.2,115.3,60,113.7,60L113.7,60z M92.6,74.3c-1.5,0-2.8,1.3-2.8,2.8 v5.5c0,1.5,1.3,2.8,2.8,2.8h42.1c1.5,0,2.8-1.3,2.8-2.8v-5.5c0-1.5-1.3-2.8-2.8-2.8H92.6L92.6,74.3z M93.2,91.4 c-1.8,0-3.3,1.6-3.3,3.6v54.9c0,2,1.5,3.6,3.3,3.6h41.1c1.8,0,3.3-1.6,3.3-3.6V95c0-2-1.5-3.6-3.3-3.6H93.2z"></path> </svg> 