<?xml version="1.0" encoding="UTF-8"?> <!-- Generator: Adobe Illustrator 24.2.1, SVG Export Plug-In . SVG Version: 6.00 Build 0) --> <svg xmlns="http://www.w3.org/2000/svg" xmlns:xlink="http://www.w3.org/1999/xlink" version="1.1" id="Camada_1" x="0px" y="0px" viewBox="0 0 238 216.1" style="enable-background:new 0 0 238 216.1;" xml:space="preserve"> <style type="text/css"> .st0{fill:#69ACAC;} .st1{fill-rule:evenodd;clip-rule:evenodd;fill:#FFFFFF;} </style> <path class="st0" d="M238,49.6V0H119.2C80.1,0,46.3,10.2,17.9,31.1C10.6,36.8,6,42.4,3.6,48.6C1.3,54.9,0,64.9,0,78.1v60.6 c0,13.2,1.3,22.8,3.6,29.1c2.3,6.3,7,12.3,14.2,17.9c28.1,20.2,61.9,30.4,101.3,30.4c39.4,0,72.8-10.2,101-30.4 c7.3-5.6,12.3-11.6,14.5-17.9c2.3-6.3,3.3-15.9,3.3-29.1v-30.6h-50.4C220.6,101.2,238,76.4,238,49.6z"></path> <g> <path class="st1" d="M97.9,52.4c-6.5,2.1-13.7,9.6-16.9,14c-3.5,4.9-7.9,15-7.4,23l84.3-0.1c0.3-9-3.6-17.2-7.5-23.1l-5.4-6.3 c-2.8-2.6-7.4-6.4-11.4-7.6c0,2.4,0,4.8,0,7.1c0,2.4,0.7,4.8-2.1,4c-0.8-2.3-0.2-14.8-0.3-18.5c-0.1-3.1-1.7-4.3-4.9-4.4 c-3,0-6.2-0.1-9.3,0c0,4.6,0.5,23.9-0.2,26.6c-1.1,0.4-0.9,0.4-2,0c-0.8-3.3-0.2-21.7-0.2-26.6c-16-0.9-14.2,0.3-14.2,11.4 c0,2.2,0,4.3,0,6.5c0,1.6,0.6,5.2-1.2,5.2c-1.8,0-1.2-3.6-1.2-5.2C97.9,56.5,97.9,54.5,97.9,52.4z"></path> <path class="st1" d="M64.7,99c0.5,5.3,5.4,5.6,8.8,5.6l43.2,0c13.8,0,29.6,0.3,43.2,0c4.2-0.1,7.4-2.7,7-7.1 c-0.2-2.1-1.3-3.7-2.7-4.6c-1.8-1.2-3.6-1.1-6.1-1.1l-43.2,0c-13.9,0-29.4-0.2-43.2,0C67.4,91.9,64.2,94.5,64.7,99z"></path> <path class="st1" d="M158,134.4c3.9-0.6,4.9-2.3,4.9-7.3c0-1.1-0.1-2.2-0.2-3.4c-0.4-2.8-2.1-4-4.6-4.4v2.4c2.1,0.4,2.3,1.9,2.3,5 c0,3.2-0.1,4.7-2.3,5.2V134.4z M147.1,145.8c4.6-2.3,6.7-5.5,8.6-11.2c0.9,0,1.6-0.1,2.3-0.2v-2.5c-0.6,0.1-1.3,0.2-2.3,0.2 l0.1-10.5c0.9,0,1.6,0,2.2,0.1v-2.4c-0.7-0.1-1.5-0.2-2.4-0.2c-1.4-9.1-10.6-7.6-16.5-7.6H91.1c-8.2,0-15-0.6-16.3,7.6 c-0.9,0.1-1.7,0.1-2.4,0.3v2.4c0.6-0.1,1.3-0.2,2.3-0.1l-0.1,10.5c-0.9,0-1.6,0-2.1-0.1v2.4c0.7,0.1,1.5,0.2,2.5,0.2 c1.9,5.7,3.8,8.7,8.4,11c4.4,2.1,11.4,2.4,16.2,0.7c4.8-1.7,8.3-5.1,10.6-8.8c4.5-7.3,2.1-14.2,5.3-13.8c3.1,0.4-0.2,7.6,4.9,15.1 C126,146.9,138.2,150.2,147.1,145.8z M72.4,119.3c-3.9,0.7-4.7,2.6-4.7,7.7c0,5,0.9,6.7,4.7,7.3V132c-2.2-0.4-2.3-2.1-2.3-5.2 c0-2.8,0.2-4.5,2.3-5V119.3z"></path> </g> </svg> 