<?xml version="1.0" encoding="UTF-8"?> <!-- Generator: Adobe Illustrator 24.2.1, SVG Export Plug-In . SVG Version: 6.00 Build 0) --> <svg xmlns="http://www.w3.org/2000/svg" xmlns:xlink="http://www.w3.org/1999/xlink" version="1.1" id="Camada_1" x="0px" y="0px" viewBox="0 0 238 216.1" style="enable-background:new 0 0 238 216.1;" xml:space="preserve"> <style type="text/css"> .st0{fill:#63A055;} .st1{fill-rule:evenodd;clip-rule:evenodd;fill:#FFFFFF;} </style> <path class="st0" d="M238,49.6V0H119.2C80.1,0,46.3,10.2,17.9,31.1C10.6,36.8,6,42.4,3.6,48.6C1.3,54.9,0,64.9,0,78.1v60.6 c0,13.2,1.3,22.8,3.6,29.1c2.3,6.3,7,12.3,14.2,17.9c28.1,20.2,61.9,30.4,101.3,30.4c39.4,0,72.8-10.2,101-30.4 c7.3-5.6,12.3-11.6,14.5-17.9c2.3-6.3,3.3-15.9,3.3-29.1v-30.6h-50.4C220.6,101.2,238,76.4,238,49.6z"></path> <g> <path class="st1" d="M75.9,63.9c-1,3.4-2.1,20.1,1,22.1c2.2,1.4,71.9,1.6,73.8-0.5c1.4-1.5,2.5-19.9-0.9-21.9 C147.8,62.5,80.1,62.2,75.9,63.9z"></path> <path class="st1" d="M102.8,153.5l20.9,0c-0.2-9.1,0-18.3,0-27.3c0-9.7,1.1-17.3-10-17.5c-11.3-0.1-10.9,6.7-10.9,16.8 C102.8,134.9,102.8,144.2,102.8,153.5z"></path> <path class="st1" d="M111.1,105.7c10.3,0.7-2-3.2,18.3-3.1c24,0,33,4.4,30.7-24.1c-0.3-4.1-1.6-5.3-5.3-6 c-0.1,1.8,1.3,8.3,1.1,18.4c-0.2,11.3-9.1,6.7-31.9,7.5C116.6,98.5,112.8,99.8,111.1,105.7z"></path> </g> </svg> 