<?xml version="1.0" encoding="UTF-8"?> <!-- Generator: Adobe Illustrator 24.2.1, SVG Export Plug-In . SVG Version: 6.00 Build 0) --> <svg xmlns="http://www.w3.org/2000/svg" xmlns:xlink="http://www.w3.org/1999/xlink" version="1.1" id="Camada_1" x="0px" y="0px" viewBox="0 0 238 216.1" style="enable-background:new 0 0 238 216.1;" xml:space="preserve"> <style type="text/css"> .st0{fill:#5185C5;} .st1{fill-rule:evenodd;clip-rule:evenodd;fill:#FFFFFF;} </style> <path class="st0" d="M238,49.6V0H119.2C80.1,0,46.3,10.2,17.9,31.1C10.6,36.8,6,42.4,3.6,48.6C1.3,54.9,0,64.9,0,78.1v60.6 c0,13.2,1.3,22.8,3.6,29.1c2.3,6.3,7,12.3,14.2,17.9c28.1,20.2,61.9,30.4,101.3,30.4c39.4,0,72.8-10.2,101-30.4 c7.3-5.6,12.3-11.6,14.5-17.9c2.3-6.3,3.3-15.9,3.3-29.1v-30.6h-50.4C220.6,101.2,238,76.4,238,49.6z"></path> <g> <path class="st1" d="M130,28.2l-1,0c0,0.2,0.1,0.5,0.2,0.8c0.2,0.7,0.3,1.3,0.5,2c0.3,1.3,19,76,19.3,77.3c0.5,2.3,1.5,5.4,1.7,7.6 c-1.9,1.9-1.1,2.8-0.3,6.1c0.4,1.6,0.3,1.9,1.4,2.5c1.3,0.8,0.9,0.6,1.3,2.3c1.1,4.6,2.5,8.5,0,12.6c-2,3.3-6.1,5.3-10.5,3.2 c-3.2-1.5-5.7-4.8-5.3-9.9l2.5,1.4l-3.1-6.7c-0.5,0.7-1.3,5.4-1.3,6.5c0,2,1.1,4.3,2,5.7c4.8,7.9,15.5,7.2,18.3-1.9 c2-6.6-2.2-12.2-1.1-13.7c0-0.1,0.2-0.2,0.3-0.3c0.9-1.4,0.3-2.5-0.2-4.5c-0.7-3-0.2-2.9-2.8-3.8l-21.2-85 C130.3,29.6,130.2,28.8,130,28.2z"></path> <path class="st1" d="M115.8,123.8c1.8,4.2,8.6,2.1,6.9-2.5C121.1,116.8,113.9,119.4,115.8,123.8L115.8,123.8z M108.1,118 c-2.2,2.2-4.4,10.3-4.6,14.5c-0.3,5.4,1.6,11.7,4.6,14.5c-0.7-4.8-2.3-5.9-2.5-14.5c0-2.6,0.2-5.4,0.7-7.9 C106.7,122.2,107.7,120.2,108.1,118L108.1,118z M104.9,108.2c7.6-0.1,12.3,0.7,17.9,3.9c3.7,2.1,9.1,6.9,10.8,10.9l-5.6,5 c-1.4,1.2-4.8,3.7-5.6,5.1l9.4,7c-0.8,3.3-6.6,8.6-9.5,10.3c-6.3,3.7-9.8,3.1-16,3.6c-1.9,2.5-4.1,5.5-7.8,6.3 c0.7-2,2.3-2.8,1.9-7.1c-9.6-1.5-19-6.5-26.3-10.5c-9.2-5-6.3-6.1-12.4-4.9c-4.6,1-10.9,2.7-15.5,3.2l4.5-10.2 c0.7-1.4,1.3-2,0.9-3.7c-1-5.2-2.6-11.2-3.4-16.4c0.9,0.2,11.8,8.4,13.5,9.7c1.2,0.9,3.5,2.8,4.7,3.3c9.9-7.4,18.5-12.4,31.2-15.5 c0.6-1,0.6-6.5,0.7-7.9c0.1,0,0.1-0.2,0.9,0.6c0.3,0.4,0.5,0.7,0.8,1.1C101.4,104.1,103.3,106,104.9,108.2z"></path> </g> </svg> 