<?xml version="1.0" encoding="UTF-8"?> <!-- Generator: Adobe Illustrator 24.2.1, SVG Export Plug-In . SVG Version: 6.00 Build 0) --> <svg xmlns="http://www.w3.org/2000/svg" xmlns:xlink="http://www.w3.org/1999/xlink" version="1.1" id="Camada_1" x="0px" y="0px" viewBox="0 0 238 216.3" style="enable-background:new 0 0 238 216.3;" xml:space="preserve"> <style type="text/css"> .st0{fill-rule:evenodd;clip-rule:evenodd;fill:#7D5547;} .st1{fill-rule:evenodd;clip-rule:evenodd;fill:#FFFFFF;} </style> <g> <path class="st0" d="M0,73.4v69.6c0,18.6,2.9,30.7,16.7,42c2.2,1.8,4.6,3.3,7,4.9l7.2,4.4c3.8,2.1,7.6,4.5,11.7,6.1 c1.5,0.6,2.4,1.2,4,1.8c3,1.2,5.6,2.2,8.6,3.4c5.6,2.2,11.9,3.9,18.1,5.5c8.6,2.2,12,2.3,19.9,3.6c3.1,0.5,7.6,0.7,10.8,1.1 c3.4,0.5,14.4,0.4,18.3,0.4c15.4,0,38.3-3.1,52.2-7.8l25.9-10.5c4.9-3,9.4-4.8,15.2-9l10.1-7.9c0.6-0.6,0.9-0.9,1.5-1.4 c4.5-4.6,8-10.9,9.2-18.2c2.4-14.4,1.7-37.1,1.7-52.5c0-1.5-2.5-1-5.2-1l-42.9-0.3c1.7,0,5.9-1.5,7.6-2.1 c7.3-2.5,12.6-5.7,18.7-10.3c3.7-2.7,7.9-7.4,10.5-11.1c0.5-0.6,0.6-0.8,1.1-1.5c10.1-14.8,10.1-26.7,10.1-43.5c0-13,0-26,0-39 c-25.9,0-51.8,0-77.7,0c-42.4,0-62.5-2.6-98.4,8.3C50.7,12,38.5,18,28.6,24c-6.9,4.1-9.4,6.1-15.3,11.1c-0.1,0-0.1,0.1-0.2,0.1 c-0.1,0-0.1,0.1-0.2,0.1C2.2,44.7,0,59.3,0,73.4z"></path> <path class="st1" d="M153.5,91.4c-12.1,1.9-89.2,24.7-92.4,29.8c-0.7,1.2-0.9,13.9-1.5,15.6c-0.6,1.9-13.3,5.6-14.4,5 c-0.3-0.2-2.6-3.1-2.9-3.6c-1-1.7-0.2-13.9,0-16.2c0.7-10.6,1.7-9.5,12.7-12.7c31.9-9.4,63.6-19.4,95.4-28.9 c15.2-4.6,21-7.3,19.2,7.8c-0.4,3.5-0.6,6.9-1,10.4c-0.3,2.2,0,3.3-2,4.1c-2,0.8-8.4,3.4-10.1,2.5c-0.8-0.4-2.9-2.2-3.3-3 C152.5,100.6,153.6,93.4,153.5,91.4z"></path> </g> </svg> 