<?xml version="1.0" encoding="UTF-8"?> <!-- Generator: Adobe Illustrator 24.2.1, SVG Export Plug-In . SVG Version: 6.00 Build 0) --> <svg xmlns="http://www.w3.org/2000/svg" xmlns:xlink="http://www.w3.org/1999/xlink" version="1.1" id="Camada_1" x="0px" y="0px" viewBox="0 0 238 216.1" style="enable-background:new 0 0 238 216.1;" xml:space="preserve"> <style type="text/css"> .st0{fill:#76B82F;} .st1{fill-rule:evenodd;clip-rule:evenodd;fill:#FFFFFF;} </style> <path class="st0" d="M238,49.6V0H119.2C80.1,0,46.3,10.2,17.9,31.1C10.6,36.8,6,42.4,3.6,48.6C1.3,54.9,0,64.9,0,78.1v60.6 c0,13.2,1.3,22.8,3.6,29.1c2.3,6.3,7,12.3,14.2,17.9c28.1,20.2,61.9,30.4,101.3,30.4c39.4,0,72.8-10.2,101-30.4 c7.3-5.6,12.3-11.6,14.5-17.9c2.3-6.3,3.3-15.9,3.3-29.1v-30.6h-50.4C220.6,101.2,238,76.4,238,49.6z"></path> <g> <g> <path class="st1" d="M122.9,134.6c0.2-0.7,0.2-7.1,0.2-8.6c0.2-5.5,0.2-11.9,0.4-17.4c0.1-2.9,0.2-5.9,0.2-8.7 c0-5.6,0.3-11.4,0.3-17.2c0-1.3,0.3-8.1,0.1-8.7c-0.6-2.3-1.5-2.4-1.1-4.9c0.3-2.3-1.1-2.4-2.8-2.4c-11.7-0.1-23.1-0.6-34.9-0.6 c-0.9,0-3.8-0.2-4.5,0.1c-1.6,0.7-0.7,2.7-0.9,4.1c-0.2,1.8-1,2.1-1,4L78.8,83c-0.1,9.9-0.6,20.7-0.6,30.4c0,3-0.2,5.8-0.2,8.7 l-0.5,26.1c0,5.9-0.3,11.6-0.3,17.4c0,4.3,3.5,4.1,6.3,4.4c2.9,0.3,5.6,0.5,8.5,0.6c10.9,0.5,15.9,0.3,26.4-0.2 c1.8-0.1,3-0.9,3.6-2.3c0.5-1.2,0.5-11.3,0.5-13L122.9,134.6z"></path> <path class="st1" d="M121.3,65c0.4-2.8-3-7.5-7.8-7.5C106,57.4,97.8,57,90.4,57c-4.3,0-8.6,4-8.2,7.4l19.6,0.3 C104.3,64.7,120.3,65.2,121.3,65z"></path> <path class="st1" d="M117.3,175.5c1.8-0.1,3.9-0.2,3.6-3.6c-1.2-0.1-4,0.3-5.5,0.4c-1.8,0.1-3.6,0.1-5.4,0.2 c-4.8,0.2-16.3-0.1-21-0.5l-10.4-0.8c0.4,2.8,0.1,3.4,3.3,3.6c5.6,0.4,11.7,0.9,17.5,0.9c3.9,0,7.9,0,11.9,0 C113.3,175.7,115.3,175.6,117.3,175.5z"></path> <path class="st1" d="M107,45c0.8,1.3,0.5,4.4-0.3,4.1c-0.7-0.3-0.6-1.8-0.5-2.3C106.3,46,106.2,45.2,107,45L107,45z M107.9,51.3 c0.1-1.2,0.2-7,0-7.9c-1-0.4-1.3-0.5-2.5-0.6c-2.6-0.1-6.7,0.5-9.2,1.4L96.1,51L107.9,51.3z"></path> <path class="st1" d="M112.9,56.5c-0.3-3.1-2.5-3.2-4.7-3.1l-9.5-0.2c-2.8-0.2-7.9-0.8-7.8,2.9L112.9,56.5z"></path> </g> <g> <path class="st1" d="M122.2,40.5c-0.5-0.8-4.1,0.7-5.2,1c-1,0.3-5.1,1-4.4,2.2c0.4,0.7,4-0.6,5.2-1 C118.8,42.3,122.9,41.6,122.2,40.5z"></path> <path class="st1" d="M119.9,51.5c-0.9-0.3-1.6-0.6-2.5-0.8c-1.9-0.6-4.1-1.7-5.1-1c0.2,1.2,1.2,1.2,2.1,1.5 c0.9,0.3,1.6,0.6,2.5,0.8c1.8,0.5,4.6,2,5,1C122.3,52.1,120.9,51.7,119.9,51.5z"></path> <path class="st1" d="M150.9,42.8c-0.2-1.4-0.9-0.9-2.1-0.8c-1,0.1-1.8,0.1-2.8,0.2c-1.8,0.1-4.4,0.1-5.2,0.9 c0.4,1.3,1.2,0.8,2.4,0.7C144.7,43.7,150.2,43.5,150.9,42.8z"></path> <path class="st1" d="M120.7,44.2c-1.5,0.1-7.5,0.3-7.8,0.9c-0.6,1.3,1.3,0.9,2,0.9c1.6-0.1,7.5-0.4,7.9-1c0-0.2,0.4-0.9-0.8-1 C121.7,44.1,121.1,44.2,120.7,44.2z"></path> <path class="st1" d="M164.7,41.1c-0.4-0.6-1.8-0.2-2.6-0.1c-2,0.2-8.4,0-7.1,1.6c0.3,0.4,4.3-0.1,5.2-0.2 C161.1,42.4,165.7,42.5,164.7,41.1z"></path> <path class="st1" d="M164.4,53.1c-0.9-0.2-5.7-0.6-7.3-0.9c-0.8-0.1-1.8-0.3-2.5,0.2c0.2,1.3,1.1,1,2.3,1.1c1,0.1,1.8,0.2,2.8,0.4 C162.9,54.3,165.3,55,164.4,53.1z"></path> <path class="st1" d="M139.6,35.4c-0.5,1.2,1.2,0.7,1.9,0.5c1.9-0.6,6.9-1.7,7.9-2.4c-0.1-1.4-0.8-1-2-0.6 C145.8,33.4,139.8,34.7,139.6,35.4z"></path> <path class="st1" d="M136.7,50c-0.3-0.5-4.5-0.8-5.3-0.8c-0.9-0.1-1.8-0.2-2.7-0.3c-0.4-0.1-2.6-0.4-1.8,0.9 c0.3,0.4,4.5,0.7,5.3,0.8C133.2,50.7,137.9,51.7,136.7,50z"></path> <path class="st1" d="M133.3,55.8c-0.9-0.3-1.7-0.5-2.5-0.8c-1.8-0.5-4-1.7-5.1-1.2c-0.2,1.4,1.1,1.2,3.2,2l3.9,1.3 c1.6,0.6,1.9,0.8,2.6,0.1C135.2,56.1,134.1,56.1,133.3,55.8z"></path> <path class="st1" d="M134.4,43.1c-0.9,0.1-1.7,0.1-2.7,0.2c-1.9,0.2-5.3,0-4.8,1.3c0.3,0.7,6.6-0.1,8.1-0.2c0.7-0.1,2.2,0.1,1.9-1 C136.6,42.6,135.2,43.1,134.4,43.1z"></path> <path class="st1" d="M153.1,31.5c-1.1,1.9,4.1,0,4.4-0.1c0.9-0.3,4.7-1.1,5.2-1.7c0.5-1.3-1-0.9-1.7-0.7 C159.5,29.4,153.4,31,153.1,31.5z"></path> <path class="st1" d="M162,65.8c0.2-0.8-1.4-1.1-2-1.3c-1.2-0.4-6.4-2.4-7.4-2.1l-0.2,0.8c0.3,0.3-0.1,0.2,1.1,0.6l5,1.6 C159.5,65.7,161.7,66.9,162,65.8z"></path> <path class="st1" d="M126.3,40c0.9,0.2,3.5-0.8,4.7-1.1l4.3-1.2c0.6-0.4,0.2,0,0.4-0.4c0.4-1.7-2.9-0.2-4.9,0.3 C127.6,38.5,125.5,38.5,126.3,40z"></path> <path class="st1" d="M120.5,49.2c0.9,0.1,1.7,0.4,2.4-0.2c-0.1-1.2-1.1-1-2.2-1.2l-5.6-0.6c-1.8-0.2-1.6-0.4-2.3,0.4l0.3,0.6 c1.5,0.2,3.2,0.4,4.9,0.6C118.7,49,119.7,49.1,120.5,49.2z"></path> <path class="st1" d="M148.7,51.2l-5.2-0.6c-0.9-0.1-2-0.5-2.7,0c-0.3,1.4,0.9,1.1,1.9,1.2l5.6,0.6c1.3,0.2,1.7,0.5,2.5-0.2 C150.5,51,149.8,51.4,148.7,51.2z"></path> <path class="st1" d="M142.1,60c0.6,0.4,2.5,0.9,3.3,1.2l2.1,0.6c0,0,0.3,0.1,0.3,0.1c0.4,0.1,0.5,0,1-0.3 c-0.2-1.1-0.2-0.9-1.2-1.2l-5.1-1.7C142.4,59.3,142.4,59.6,142.1,60z"></path> <path class="st1" d="M142.1,60c0.3-0.4,0.3-0.7,0.3-1.3c-0.8-0.1-2.2-0.9-3.2-0.7c0,0.1-0.1,0.4-0.2,0.4 C139.4,59.6,141.6,60,142.1,60z"></path> </g> </g> </svg> 