<?xml version="1.0" encoding="UTF-8"?> <!-- Generator: Adobe Illustrator 24.2.1, SVG Export Plug-In . SVG Version: 6.00 Build 0) --> <svg xmlns="http://www.w3.org/2000/svg" xmlns:xlink="http://www.w3.org/1999/xlink" version="1.1" id="Camada_1" x="0px" y="0px" viewBox="0 0 238 216.1" style="enable-background:new 0 0 238 216.1;" xml:space="preserve"> <style type="text/css"> .st0{fill:#9B6B57;} .st1{fill-rule:evenodd;clip-rule:evenodd;fill:#FFFFFF;} </style> <path class="st0" d="M238,49.6V0H119.2C80.1,0,46.3,10.2,17.9,31.1C10.6,36.8,6,42.4,3.6,48.6C1.3,54.9,0,64.9,0,78.1v60.6 c0,13.2,1.3,22.8,3.6,29.1c2.3,6.3,7,12.3,14.2,17.9c28.1,20.2,61.9,30.4,101.3,30.4c39.4,0,72.8-10.2,101-30.4 c7.3-5.6,12.3-11.6,14.5-17.9c2.3-6.3,3.3-15.9,3.3-29.1v-30.6h-50.4C220.6,101.2,238,76.4,238,49.6z"></path> <g> <path class="st1" d="M95.4,65.1c6-1.4,12.5,4.2,14.6,12.5c2,8.3-1.2,16.2-7.2,17.6c-6,1.4-12.5-4.2-14.6-12.5 C86.2,74.4,89.4,66.5,95.4,65.1z"></path> <ellipse transform="matrix(0.2217 -0.9751 0.9751 0.2217 21.1104 186.9686)" class="st1" cx="127.7" cy="80.3" rx="15.5" ry="11.2"></ellipse> <path class="st1" d="M151,90.8c5.3,2.3,7.1,10.2,3.9,17.6c-3.2,7.4-10,11.5-15.3,9.2c-5.3-2.3-7.1-10.2-3.9-17.6 C138.8,92.6,145.7,88.4,151,90.8z"></path> <path class="st1" d="M75.4,90.6c-5.2,2.3-6.7,10.2-3.3,17.6c3.4,7.4,10.4,11.5,15.7,9.2c5.2-2.3,6.7-10.2,3.3-17.6 C87.6,92.4,80.6,88.3,75.4,90.6z"></path> <path class="st1" d="M113.4,106.1c14.7,0.5,34.3,22.7,29,34.8c-6.1,9-19.6-0.9-29-0.9c-9.4,0-22.9,9.9-29,0.9 C79.2,128.9,98.7,106.6,113.4,106.1z"></path> </g> </svg> 