<?xml version="1.0" encoding="UTF-8"?> <!-- Generator: Adobe Illustrator 24.2.1, SVG Export Plug-In . SVG Version: 6.00 Build 0) --> <svg xmlns="http://www.w3.org/2000/svg" xmlns:xlink="http://www.w3.org/1999/xlink" version="1.1" id="Camada_1" x="0px" y="0px" viewBox="0 0 238 216.1" style="enable-background:new 0 0 238 216.1;" xml:space="preserve"> <style type="text/css"> .st0{fill:#376B2C;} .st1{fill-rule:evenodd;clip-rule:evenodd;fill:#FFFFFF;} </style> <path class="st0" d="M238,49.6V0H119.2C80.1,0,46.3,10.2,17.9,31.1C10.6,36.8,6,42.4,3.6,48.6C1.3,54.9,0,64.9,0,78.1v60.6 c0,13.2,1.3,22.8,3.6,29.1c2.3,6.3,7,12.3,14.2,17.9c28.1,20.2,61.9,30.4,101.3,30.4c39.4,0,72.8-10.2,101-30.4 c7.3-5.6,12.3-11.6,14.5-17.9c2.3-6.3,3.3-15.9,3.3-29.1v-30.6h-50.4C220.6,101.2,238,76.4,238,49.6z"></path> <path class="st1" d="M110.7,96.9c-1-1.3-2.9-5.7-4-7.4c-5-7.9-14.1-10-23.3-7c0.7,4.3,5.5,8.1,8.2,9.7c4.6,2.5,8.9,2.8,14.9,1.4 c2.1,5.8,3.9,9.9,1.9,16.8c-5.4-1.1-9-2-14.1,1.9c-3.9,3-5.2,6.4-4.5,11.4c-2.9,0.8-4.4,1.2-6.6,2.9c-1.9,1.5-3.3,3.1-3.7,5.6 c-2,13.6,67.4,13.6,64.7-6.1c-2-6.5-10.4-10-18.5-8.4c-2.6-6.9-8.2-7.9-14.8-7.8c0-2.7,1.1-9.5,2-11.9c1.2-3.2,5-5.9,9.7-6.1 c4.4,4.3,7.3,7.1,14.8,8.6c7,1.3,14.2-0.8,19-4.3c-2.4-5.5-10.9-9.8-17.8-10.4c-4.6-0.4-9,0.5-12.9,2.4c-3.8,1.9-7,1.8-11.1,4 c0.7-2.8,1.8-6.9,3.1-9.3c13.9-1.2,24.1-11.4,23.7-24.3c-11.7,0.4-19.2,6.4-22.7,13.3c-2.2,4.4-1.8,6.4-4,12.4 c-0.8,2.2-1.4,3.9-2,6.2C112.2,92.4,111.6,95.5,110.7,96.9z"></path> </svg> 