<?xml version="1.0" encoding="UTF-8"?> <!-- Generator: Adobe Illustrator 24.2.1, SVG Export Plug-In . SVG Version: 6.00 Build 0) --> <svg xmlns="http://www.w3.org/2000/svg" xmlns:xlink="http://www.w3.org/1999/xlink" version="1.1" id="Camada_1" x="0px" y="0px" viewBox="0 0 238 216.1" style="enable-background:new 0 0 238 216.1;" xml:space="preserve"> <style type="text/css"> .st0{fill:#92999D;} .st1{fill-rule:evenodd;clip-rule:evenodd;fill:#FFFFFF;} </style> <path class="st0" d="M238,49.6V0H119.2C80.1,0,46.3,10.2,17.9,31.1C10.6,36.8,6,42.4,3.6,48.6C1.3,54.9,0,64.9,0,78.1v60.6 c0,13.2,1.3,22.8,3.6,29.1c2.3,6.3,7,12.3,14.2,17.9c28.1,20.2,61.9,30.4,101.3,30.4c39.4,0,72.8-10.2,101-30.4 c7.3-5.6,12.3-11.6,14.5-17.9c2.3-6.3,3.3-15.9,3.3-29.1v-30.6h-50.4C220.6,101.2,238,76.4,238,49.6z"></path> <g> <path class="st1" d="M85,52.2h19.2v4.9c0,1,0.8,1.8,1.8,1.8h21.1c1,0,1.8-0.8,1.8-1.8v-4.9h18.8V58l-18.1,15.2h-26.9L85,58.6V52.2z "></path> <path class="st1" d="M103.9,76.5h24.4v9.4l-24.4,22.3V76.5L103.9,76.5z M128.3,90.8L103.9,113v5.7l24.4-22.3V90.8L128.3,90.8z M128.3,101.4l-24.4,22.3v5.4l24.4-22.3V101.4L128.3,101.4z M128.3,111.6v5.4L104,139.2l-0.1-0.1v-5.3L128.3,111.6L128.3,111.6z M128.3,122v5.7L110,144.3l-3.2-2.7L128.3,122L128.3,122z M128.3,132.5l-15.6,14.2l3.6,3.1l11.9-11V132.5z"></path> </g> </svg> 