<?xml version="1.0" encoding="UTF-8"?> <!-- Generator: Adobe Illustrator 24.2.1, SVG Export Plug-In . SVG Version: 6.00 Build 0) --> <svg xmlns="http://www.w3.org/2000/svg" xmlns:xlink="http://www.w3.org/1999/xlink" version="1.1" id="Camada_1" x="0px" y="0px" viewBox="0 0 238 216.1" style="enable-background:new 0 0 238 216.1;" xml:space="preserve"> <style type="text/css"> .st0{fill:#E20E18;} .st1{fill-rule:evenodd;clip-rule:evenodd;fill:#FFFFFF;} </style> <path class="st0" d="M238,49.6V0H119.2C80.1,0,46.3,10.2,17.9,31.1C10.6,36.8,6,42.4,3.6,48.6C1.3,54.9,0,64.9,0,78.1v60.6 c0,13.2,1.3,22.8,3.6,29.1c2.3,6.3,7,12.3,14.2,17.9c28.1,20.2,61.9,30.4,101.3,30.4c39.4,0,72.8-10.2,101-30.4 c7.3-5.6,12.3-11.6,14.5-17.9c2.3-6.3,3.3-15.9,3.3-29.1v-30.6h-50.4C220.6,101.2,238,76.4,238,49.6z"></path> <g> <path class="st1" d="M63.7,64.5c-2.2,0.1-4,0.3-4.9,1.1c-1.4,1.2-1.8,4.2-0.8,6.1c1.2,2.5,2.5,2.1,5.5,2.2 c0,13.9-2.6,27.2,9.7,27.6c8.9,0.3,13.7-1.8,12.6,9.3c-0.4,3.5,0.4,6.4,2.8,8.6c10.8,10,20.6,19.8,31.5,29.7c2.5,3.3,6.9,0.1,4-3 l-27.4-27.1c-8.8-7.5-2-8.2-6.3-17.3c7.4-0.7,20.7,3.1,20.7-10.5l0-17.2c2.8-0.1,4,0.2,5.3-1.8c1.1-1.8,0.9-4.7-0.4-6.2 c-1-1.1-3.2-1.3-5.6-1.3L63.7,64.5z"></path> <g> <path class="st1" d="M73.2,42.5L73.2,42.5c1.8,0,3.3,1.5,3.3,3.3v20.4c0,1.8-1.5,3.3-3.3,3.3l0,0c-1.8,0-3.3-1.5-3.3-3.3V45.8 C69.9,44,71.4,42.5,73.2,42.5z"></path> <path class="st1" d="M86.8,42.5L86.8,42.5c1.8,0,3.3,1.5,3.3,3.3v20.4c0,1.8-1.5,3.3-3.3,3.3l0,0c-1.8,0-3.3-1.5-3.3-3.3V45.8 C83.5,44,85,42.5,86.8,42.5z"></path> <path class="st1" d="M101.4,42.5L101.4,42.5c1.8,0,3.3,1.5,3.3,3.3v20.4c0,1.8-1.5,3.3-3.3,3.3l0,0c-1.8,0-3.3-1.5-3.3-3.3V45.8 C98.1,44,99.6,42.5,101.4,42.5z"></path> </g> </g> </svg> 