<?xml version="1.0" encoding="UTF-8"?> <svg xmlns="http://www.w3.org/2000/svg" viewBox="0 0 15.88 15.94"><defs><style>.cls-1{fill:#ff1a06;}</style></defs><g id="Camada_2" data-name="Camada 2"><g id="Camada_1-2" data-name="Camada 1"><path class="cls-1" d="M15.78,4a4.08,4.08,0,0,0-1.3-2.7A4.45,4.45,0,0,0,11.58.1a51.57,51.57,0,0,0-7.9.1A3.82,3.82,0,0,0,.28,3.3c-.4,1.4-.31,7.6-.1,8.9a4.15,4.15,0,0,0,3.2,3.5,51.61,51.61,0,0,0,8.8.1,4.15,4.15,0,0,0,3.5-3.2A61.9,61.9,0,0,0,15.78,4Zm-1.5,8a2.59,2.59,0,0,1-2.5,2.4,56,56,0,0,1-8.2-.1,2.68,2.68,0,0,1-2-2.3,53.37,53.37,0,0,1,0-8,2.68,2.68,0,0,1,2.5-2.4,50.77,50.77,0,0,1,7.8,0,2.59,2.59,0,0,1,2.4,2.5A52.08,52.08,0,0,1,14.28,12ZM7.88,3.9A4.06,4.06,0,0,0,3.78,8a4.06,4.06,0,0,0,4.1,4.1A4.06,4.06,0,0,0,12,8,4.06,4.06,0,0,0,7.88,3.9Zm0,6.7a2.67,2.67,0,0,1-2.6-2.7A2.61,2.61,0,0,1,8,5.3,2.61,2.61,0,0,1,10.58,8,2.67,2.67,0,0,1,7.88,10.6Zm5.2-6.9a1,1,0,1,1-1-1A1.07,1.07,0,0,1,13.08,3.7Z"></path></g></g></svg> 