<?xml version="1.0" encoding="UTF-8"?> <svg xmlns="http://www.w3.org/2000/svg" viewBox="0 0 879.85 149.3"><defs><style>.cls-1{fill:#ff1a06;}.cls-2{fill:#fff;}.cls-3{fill:#f6f6f6;}</style></defs><g id="Camada_2" data-name="Camada 2"><g id="Camada_1-2" data-name="Camada 1"><rect class="cls-1" width="879.85" height="149.3"></rect><path class="cls-2" d="M135.81,48.55c-.66-6.58-3.29-13.16-8.55-17.76-5.26-5.26-11.83-7.23-19.07-7.89-12.49-.66-41.43-1.32-51.95.66-11.84,2-19.73,8.54-22.36,20.38-2.63,9.21-2,50-.66,58.53,2,11.84,9.21,19.73,21.05,23,8.54,2,48.66,2,57.87.66,11.83-2,19.73-9.21,23-21.05C137.13,95.89,136.47,57.09,135.81,48.55ZM126,101.16c-1.32,9.2-7.24,15.12-16.44,15.78-8.55.66-46,1.31-53.93-.66-7.23-2-11.84-7.23-13.15-15.12-1.32-7.24-1.32-43.41,0-52.61s7.23-14.47,16.44-15.79,42.74-1.31,51.29,0C119.37,34.08,125.29,40,126,49.2,127.26,57.75,127.26,92,126,101.16ZM83.86,47.89a27,27,0,1,0,27,27A26.66,26.66,0,0,0,83.86,47.89Zm0,44.06c-9.21,0-17.1-7.89-17.1-17.76s7.89-17.1,17.76-17.1,17.09,7.9,17.09,17.76C101.61,84.06,93.72,92,83.86,92Zm34.2-45.38A6.58,6.58,0,1,1,111.48,40C115.43,40.65,118.06,43.28,118.06,46.57Z"></path><rect class="cls-3" x="167.68" width="712.17" height="149.3"></rect><path d="M254.67,55.7a26.74,26.74,0,0,1,14.62,24.38,26.16,26.16,0,0,1-1.64,9.74,13.73,13.73,0,0,1-4.6,6.2,11.61,11.61,0,0,1-6.94,2.12,10.11,10.11,0,0,1-5.52-1.42,8.08,8.08,0,0,1-3.28-4.17q-3.47,5.58-11,5.59a14.25,14.25,0,0,1-7.51-2.06,14.54,14.54,0,0,1-5.37-5.75,19,19,0,0,1,0-16.83,14.59,14.59,0,0,1,5.33-5.75,14.24,14.24,0,0,1,7.55-2.06q6.36,0,9.9,4.24V66.14H255V87c0,2.74,1,4.11,3.08,4.11q2.25,0,3.5-2.7t1.26-8.16a21.87,21.87,0,0,0-3-11.47A20.49,20.49,0,0,0,251.39,61a26.83,26.83,0,0,0-12.5-2.8,25.5,25.5,0,0,0-12.49,3A21.18,21.18,0,0,0,218,69.42a23.79,23.79,0,0,0-3,12,24.46,24.46,0,0,0,3,12.11,21.13,21.13,0,0,0,8.32,8.29,25,25,0,0,0,12.37,3,28.2,28.2,0,0,0,12.65-2.82l2.06,5.91a27.17,27.17,0,0,1-6.84,2.28,39.88,39.88,0,0,1-7.87.8,33.1,33.1,0,0,1-16.13-3.82,27.28,27.28,0,0,1-10.86-10.57,30,30,0,0,1-3.85-15.16,29.38,29.38,0,0,1,3.88-15,27.38,27.38,0,0,1,11-10.47,33.82,33.82,0,0,1,16.25-3.79A33.44,33.44,0,0,1,254.67,55.7ZM244.1,88.4a9,9,0,0,0,2.25-6.52,8.81,8.81,0,0,0-2.25-6.42,7.69,7.69,0,0,0-5.78-2.32,7.56,7.56,0,0,0-5.79,2.35,9,9,0,0,0-2.18,6.39,9.25,9.25,0,0,0,2.18,6.49,7.48,7.48,0,0,0,5.79,2.38A7.64,7.64,0,0,0,244.1,88.4Z"></path><path d="M283.07,95.92a16.91,16.91,0,0,1-6.78-6.33,18.51,18.51,0,0,1,0-18.37,16.91,16.91,0,0,1,6.78-6.33,22,22,0,0,1,19.56,0,17,17,0,0,1,6.75,6.33,18.51,18.51,0,0,1,0,18.37,17,17,0,0,1-6.75,6.33,22.12,22.12,0,0,1-19.56,0Zm16.12-8.55a9.68,9.68,0,0,0,2.48-7,9.71,9.71,0,0,0-2.48-7,8.37,8.37,0,0,0-6.33-2.6,8.48,8.48,0,0,0-6.36,2.6,9.64,9.64,0,0,0-2.5,7,9.6,9.6,0,0,0,2.5,7A8.45,8.45,0,0,0,292.86,90,8.34,8.34,0,0,0,299.19,87.37Z"></path><path d="M332.93,63.89a17.88,17.88,0,0,1,7-1.29v9.26c-1.11-.09-1.86-.13-2.25-.13A9.14,9.14,0,0,0,331,74.14q-2.45,2.4-2.45,7.23V97.69h-10V63.12h9.57v4.56A11.17,11.17,0,0,1,332.93,63.89Z"></path><path d="M352.39,95.92a17.43,17.43,0,0,1,0-31,21.31,21.31,0,0,1,9.93-2.29,19.24,19.24,0,0,1,9.54,2.29,13.56,13.56,0,0,1,5.95,6.52L370,75.58a8.49,8.49,0,0,0-7.77-4.75,8.79,8.79,0,0,0-6.49,2.57,9.43,9.43,0,0,0-2.57,7,9.46,9.46,0,0,0,2.57,7A8.79,8.79,0,0,0,362.26,90,8.41,8.41,0,0,0,370,85.22l7.78,4.24a13.86,13.86,0,0,1-5.95,6.43,19,19,0,0,1-9.54,2.31A21.3,21.3,0,0,1,352.39,95.92Z"></path><path d="M409.87,66.43q4.31,3.82,4.3,11.53V97.69h-9.38V93.38Q402,98.21,394.25,98.2a16.33,16.33,0,0,1-6.9-1.35,10.34,10.34,0,0,1-4.47-3.72,9.71,9.71,0,0,1-1.54-5.4A9,9,0,0,1,385,80.15q3.63-2.76,11.21-2.77h8a6.41,6.41,0,0,0-2-5q-2-1.77-6-1.77a17.42,17.42,0,0,0-5.43.87,14.26,14.26,0,0,0-4.53,2.35l-3.6-7a21.81,21.81,0,0,1,6.78-3.08,30.37,30.37,0,0,1,8.13-1.1Q405.56,62.6,409.87,66.43Zm-8.55,23.84a6.53,6.53,0,0,0,2.83-3.51V83.23h-6.88q-6.16,0-6.16,4a3.6,3.6,0,0,0,1.51,3,6.76,6.76,0,0,0,4.14,1.12A8.75,8.75,0,0,0,401.32,90.27Z"></path><path d="M458.83,50V97.69h-9.58v-4q-3.72,4.5-10.79,4.5A18,18,0,0,1,429.62,96a15.71,15.71,0,0,1-6.2-6.24,19,19,0,0,1-2.25-9.38A19,19,0,0,1,423.42,71a15.68,15.68,0,0,1,6.2-6.23,17.94,17.94,0,0,1,8.84-2.19q6.62,0,10.34,4.18V50ZM446.49,87.37a9.61,9.61,0,0,0,2.51-7,9.64,9.64,0,0,0-2.51-7,9,9,0,0,0-12.66,0,9.64,9.64,0,0,0-2.5,7,9.6,9.6,0,0,0,2.5,7,9,9,0,0,0,12.66,0Z"></path><path d="M468.59,56.69a5.44,5.44,0,0,1,0-8,6.38,6.38,0,0,1,4.5-1.61,6.52,6.52,0,0,1,4.5,1.54,5,5,0,0,1,1.73,3.86,5.46,5.46,0,0,1-1.73,4.14,7,7,0,0,1-9,0Zm-.51,6.43h10V97.69h-10Z"></path><path d="M490.63,97.14a21.74,21.74,0,0,1-6.55-2.67l3.34-7.19A21.05,21.05,0,0,0,493,89.69a23.4,23.4,0,0,0,6.42.93q6.36,0,6.36-3.15a2.24,2.24,0,0,0-1.73-2.12,25.77,25.77,0,0,0-5.33-1.09,51.14,51.14,0,0,1-7-1.48,10.78,10.78,0,0,1-4.78-3,8.38,8.38,0,0,1-2-6,9.42,9.42,0,0,1,1.9-5.82,12.16,12.16,0,0,1,5.52-4,23.65,23.65,0,0,1,8.58-1.42,33.38,33.38,0,0,1,7.29.81,20,20,0,0,1,6,2.22l-3.34,7.13a19.87,19.87,0,0,0-10-2.57,10.14,10.14,0,0,0-4.82.9,2.64,2.64,0,0,0-1.6,2.31,2.29,2.29,0,0,0,1.73,2.25,31.06,31.06,0,0,0,5.53,1.22,57.7,57.7,0,0,1,6.93,1.51,10.52,10.52,0,0,1,4.7,2.92,8.35,8.35,0,0,1,2,5.91,9.15,9.15,0,0,1-1.93,5.72,12.34,12.34,0,0,1-5.62,3.89,25.11,25.11,0,0,1-8.77,1.38A33.45,33.45,0,0,1,490.63,97.14Z"></path><path d="M543.83,96a10.27,10.27,0,0,1-3.63,1.63,18.14,18.14,0,0,1-4.53.55q-6.17,0-9.54-3.15t-3.38-9.25V71.6h-5.33V63.89h5.33V55.47h10v8.42h8.61V71.6h-8.61V85.67a4.74,4.74,0,0,0,1.12,3.38,4.17,4.17,0,0,0,3.18,1.18,6.41,6.41,0,0,0,4-1.28Z"></path><path d="M563.91,63.89a17.92,17.92,0,0,1,7-1.29v9.26c-1.11-.09-1.86-.13-2.24-.13A9.17,9.17,0,0,0,562,74.14q-2.44,2.4-2.44,7.23V97.69h-10V63.12h9.58v4.56A11.14,11.14,0,0,1,563.91,63.89Z"></path><path d="M577.43,56.69a5.44,5.44,0,0,1,0-8,6.38,6.38,0,0,1,4.5-1.61,6.52,6.52,0,0,1,4.5,1.54,4.94,4.94,0,0,1,1.73,3.86,5.43,5.43,0,0,1-1.73,4.14,7,7,0,0,1-9,0Zm-.51,6.43h10V97.69h-10Z"></path><path d="M625.46,64.82a15.94,15.94,0,0,1,6.2,6.23,18.83,18.83,0,0,1,2.25,9.35,18.78,18.78,0,0,1-2.25,9.35,15.81,15.81,0,0,1-6.2,6.23,17.59,17.59,0,0,1-8.77,2.22q-7.12,0-10.86-4.5v4h-9.57V50h10V66.78q3.79-4.17,10.41-4.18A17.59,17.59,0,0,1,625.46,64.82Zm-4.17,22.55a9.71,9.71,0,0,0,2.47-7,9.75,9.75,0,0,0-2.47-7,9,9,0,0,0-12.66,0,9.71,9.71,0,0,0-2.48,7,9.68,9.68,0,0,0,2.48,7,9,9,0,0,0,12.66,0Z"></path><path d="M675.42,63.12V97.69h-9.51V93.57A13.32,13.32,0,0,1,661.15,97a15,15,0,0,1-6,1.19q-6.81,0-10.8-3.92t-4-11.63V63.12h10V81.17q0,8.35,7,8.36a7.52,7.52,0,0,0,5.78-2.35c1.45-1.56,2.18-3.89,2.18-7V63.12Z"></path><path d="M685.25,56.69a5.42,5.42,0,0,1,0-8,6.34,6.34,0,0,1,4.49-1.61,6.49,6.49,0,0,1,4.5,1.54A5,5,0,0,1,696,52.52a5.44,5.44,0,0,1-1.74,4.14,7,7,0,0,1-9,0Zm-.52,6.43h10V97.69h-10Z"></path><path d="M739.28,50V97.69h-9.57v-4q-3.74,4.5-10.79,4.5A18,18,0,0,1,710.08,96a15.71,15.71,0,0,1-6.2-6.24,19,19,0,0,1-2.25-9.38A19,19,0,0,1,703.88,71a15.68,15.68,0,0,1,6.2-6.23,17.91,17.91,0,0,1,8.84-2.19q6.62,0,10.34,4.18V50ZM727,87.37a9.6,9.6,0,0,0,2.5-7,9.64,9.64,0,0,0-2.5-7,9,9,0,0,0-12.66,0,9.64,9.64,0,0,0-2.51,7,9.61,9.61,0,0,0,2.51,7,9,9,0,0,0,12.66,0Z"></path><path d="M755.18,95.92a16.88,16.88,0,0,1-6.77-6.33,18.44,18.44,0,0,1,0-18.37,16.88,16.88,0,0,1,6.77-6.33A20.77,20.77,0,0,1,765,62.6a20.57,20.57,0,0,1,9.77,2.29,17,17,0,0,1,6.75,6.33,18.51,18.51,0,0,1,0,18.37,17,17,0,0,1-6.75,6.33A20.56,20.56,0,0,1,765,98.2,20.77,20.77,0,0,1,755.18,95.92Zm16.13-8.55a9.68,9.68,0,0,0,2.48-7,9.71,9.71,0,0,0-2.48-7,8.37,8.37,0,0,0-6.33-2.6,8.46,8.46,0,0,0-6.36,2.6,9.64,9.64,0,0,0-2.5,7,9.6,9.6,0,0,0,2.5,7A8.44,8.44,0,0,0,765,90,8.34,8.34,0,0,0,771.31,87.37Z"></path><path d="M805,63.89a18,18,0,0,1,7-1.29v9.26c-1.12-.09-1.86-.13-2.25-.13a9.19,9.19,0,0,0-6.75,2.41c-1.62,1.6-2.44,4-2.44,7.23V97.69h-10V63.12h9.57v4.56A11.2,11.2,0,0,1,805,63.89Z"></path><path d="M844.14,66.43q4.3,3.82,4.31,11.53V97.69h-9.38V93.38q-2.84,4.83-10.54,4.82a16.35,16.35,0,0,1-6.91-1.35,10.25,10.25,0,0,1-4.46-3.72,9.72,9.72,0,0,1-1.55-5.4,9,9,0,0,1,3.63-7.58q3.63-2.76,11.22-2.77h8a6.38,6.38,0,0,0-2-5q-2-1.77-6-1.77a17.33,17.33,0,0,0-5.43.87,14.26,14.26,0,0,0-4.53,2.35l-3.6-7a21.6,21.6,0,0,1,6.78-3.08,30.24,30.24,0,0,1,8.12-1.1Q839.84,62.6,844.14,66.43ZM835.6,90.27a6.51,6.51,0,0,0,2.82-3.51V83.23h-6.87q-6.16,0-6.17,4a3.6,3.6,0,0,0,1.51,3A6.8,6.8,0,0,0,831,91.45,8.77,8.77,0,0,0,835.6,90.27Z"></path></g></g></svg> 