<?xml version="1.0" encoding="UTF-8"?> <svg xmlns="http://www.w3.org/2000/svg" id="Camada_1" data-name="Camada 1" viewBox="0 0 114.15 60.45"><defs><style>.cls-1,.cls-2{fill:#fff;}.cls-2{opacity:0.6;isolation:isolate;}</style></defs><title>logo-opis</title><g id="Camada_1-2" data-name="Camada 1-2"><path class="cls-1" d="M47.05,25.65a10.72,10.72,0,0,1,9.7-5.7c5.8.2,9.4,6.1,12,10.8l3.3-4.9c-6.6-11.1-10.8-12-15.9-12a17.51,17.51,0,0,0-9.6,3.2h0l-.3.2-.1.1c-.2.1-.4.3-.7.5h0c-1.2.9-3.8,3.6-5.9,9.7l-.4,1.3a16.43,16.43,0,0,1-7.8,9.2c-8.9,5-20,.7-23.7-7.4s-1.4-17.9,7.4-22.6a17,17,0,0,1,23,7h0a16.54,16.54,0,0,1,2,7.2v3.1a17.47,17.47,0,0,1,5.5-7.9,20.94,20.94,0,0,0-2.2-5.6c-2.7-4.6-8.2-11-19.4-11.8S2.25,8.35.55,17.65s.4,16.7,7.9,23.4,21.2,7,29.5-.3a18.88,18.88,0,0,0,2-2h0a25.69,25.69,0,0,0,3.5-5.7C45.05,29.45,46.35,27,47.05,25.65Z" transform="translate(0 0)"></path><path class="cls-1" d="M113.85,41.25a4.37,4.37,0,0,0-2.2-2.2,4.42,4.42,0,0,0-3.2,0,3.89,3.89,0,0,0-1.3.9A4,4,0,0,0,107,45.6l0,0,.1.1a3.89,3.89,0,0,0,1.3.9,4.19,4.19,0,0,0,4.5-.9,4,4,0,0,0,1.2-2.9A4.37,4.37,0,0,0,113.85,41.25Z" transform="translate(0 0)"></path><path class="cls-1" d="M70.75,11a3.89,3.89,0,0,0,1.3.9,4.17,4.17,0,0,0,1.6.3,4.37,4.37,0,0,0,1.6-.3,4.06,4.06,0,0,0,2.5-3.8,4.37,4.37,0,0,0-.3-1.6,3.89,3.89,0,0,0-.9-1.3,3.89,3.89,0,0,0-1.3-.9,4.42,4.42,0,0,0-3.2,0,3.89,3.89,0,0,0-1.3.9,3.94,3.94,0,0,0-.23,5.57Z" transform="translate(0 0)"></path><path class="cls-1" d="M110.05,37.35a3,3,0,0,0,3-3h0v-30h0a3,3,0,1,0-6,0h0v30h0A3,3,0,0,0,110.05,37.35Z" transform="translate(0 0)"></path><path class="cls-2" d="M113.05,25.55a13.81,13.81,0,0,0-6,.9v7.9h0a3,3,0,1,0,6,0h0Z" transform="translate(0 0)"></path><path class="cls-1" d="M46.05,44.25V28.85q-.75,1.5-1.8,3.9a21.68,21.68,0,0,1-4.2,6.6v18.1h0a3,3,0,0,0,6,0h0Z" transform="translate(0 0)"></path><path class="cls-1" d="M75.75,31.15h0l.9-1.6a2.29,2.29,0,0,0,.3-.5,20.58,20.58,0,0,1-4-3.8h0l-.3.5h0a2.29,2.29,0,0,0-.3.5h0l-3.3,4.9-.3.4h0c-3.5,4.7-7.7,8.7-12.8,8.7-6.7,0-8.9-6.1-9.6-11.7v13.5c1.4,2.9,5.8,4.2,10.4,4.1,7.3-.2,11.7-4,15-8.8h0c.1-.2.3-.5.3-.5l.1-.1,3.3-5.3Z" transform="translate(0 0)"></path><path class="cls-1" d="M80.75,23.85l.5-.6a10.3,10.3,0,0,1,7.6-3.3,9.89,9.89,0,0,1,7.1,2.9c3.3,3.2,5.3,1,5.8-.8s-4.4-8.2-13-8.2a15.44,15.44,0,0,0-11.1,4.7h0l-.5.5A10.22,10.22,0,0,0,80.75,23.85Z" transform="translate(0 0)"></path><path class="cls-1" d="M92.35,28.05c-3.4-.6-7.8-1.4-11.1-3.5h-.1a10,10,0,0,1-4.2-5.5h0a.87.87,0,0,1-.1-.5,13.42,13.42,0,0,1-.2-2,3,3,0,0,0-3-2.8s-3.1.3-3.1,3.1a14,14,0,0,0,2.4,7.7l.1.1a21.4,21.4,0,0,0,4.4,4.1l.4.2h0a20.52,20.52,0,0,0,4.8,2.1c10.9,3.4,14.4,4,12.4,6.6-1.9,2.4-11.7,5.3-19.2-5.8l-3,4.8c3.3,4.3,8.6,9.4,16,9.4,9,0,13-5.6,13.2-9.3S98.45,29.15,92.35,28.05Z" transform="translate(0 0)"></path><path class="cls-2" d="M88.45,13.85a15.78,15.78,0,0,0-10.8,4.7h0l-.5.5a11.09,11.09,0,0,0,3.5,4.8c.2-.2.3-.4.5-.6a10.3,10.3,0,0,1,7.6-3.3,8.55,8.55,0,0,1,1.6.1C90.75,17.75,89.35,15.25,88.45,13.85Z" transform="translate(0 0)"></path><path class="cls-2" d="M76.65,29.55a2.29,2.29,0,0,0,.3-.5,20.58,20.58,0,0,1-4-3.8h0l-.3.5h0a2.29,2.29,0,0,0-.3.5h0l-3.3,4.9-.3.4h0a26.8,26.8,0,0,1-4.2,4.7,6.62,6.62,0,0,0,3.7,5.3,32.53,32.53,0,0,0,3.5-4.1h0c.1-.2.3-.5.3-.5l.1-.1,3.3-5.3.2-.3h0Z" transform="translate(0 0)"></path><path class="cls-2" d="M75.75,32l-3,4.8c2.6,3.4,6.4,7.2,11.5,8.7a6.6,6.6,0,0,0,2.2-5.8C83.05,39.15,79.15,37.05,75.75,32Z" transform="translate(0 0)"></path><path class="cls-2" d="M62.35,15a14.13,14.13,0,0,0-4,5.1c5,1,8.1,6.3,10.6,10.7l3.3-4.9C68.25,19.35,65.25,16.35,62.35,15Z" transform="translate(0 0)"></path><path class="cls-2" d="M57.65,40.15a8.87,8.87,0,0,1-1.7.2c-6.7,0-8.9-6.1-9.6-11.7v13.5c1.4,2.9,5.8,4.2,10.4,4.1a3.7,3.7,0,0,0,1.1-.1A13.51,13.51,0,0,0,57.65,40.15Z" transform="translate(0 0)"></path><path class="cls-2" d="M46.05,51.15V28.85q-.75,1.5-1.8,3.9a21.68,21.68,0,0,1-4.2,6.6V51A8.29,8.29,0,0,0,46.05,51.15Z" transform="translate(0 0)"></path><path class="cls-2" d="M39.45,18.45a23.3,23.3,0,0,1,.6,3.8v3.1a17.47,17.47,0,0,1,5.5-7.9,20.94,20.94,0,0,0-2.2-5.6,24.26,24.26,0,0,0-5-6.1,6.34,6.34,0,0,0-5,3.8A17.93,17.93,0,0,1,39.45,18.45Z" transform="translate(0 0)"></path></g></svg> 