<?xml version="1.0" encoding="UTF-8"?> <!-- Generator: Adobe Illustrator 24.2.1, SVG Export Plug-In . SVG Version: 6.00 Build 0) --> <svg xmlns="http://www.w3.org/2000/svg" xmlns:xlink="http://www.w3.org/1999/xlink" version="1.1" id="Camada_1" x="0px" y="0px" viewBox="0 0 568.1 180.1" style="enable-background:new 0 0 568.1 180.1;" xml:space="preserve"> <style type="text/css"> .st0{fill:#FF1A06;} .st1{fill:#606060;} </style> <g> <g> <path class="st0" d="M126.1,32.1V5.8h-63c-20.7,0-38.6,5.4-53.7,16.5c-3.8,3-6.3,6-7.5,9.3C0.7,34.9,0,40.2,0,47.2v32.1 c0,7,0.7,12.1,1.9,15.4c1.2,3.3,3.7,6.5,7.5,9.5c14.9,10.7,32.8,16.1,53.7,16.1c20.9,0,38.6-5.4,53.5-16.1c3.8-3,6.5-6.1,7.7-9.5 c1.2-3.3,1.8-8.4,1.8-15.4V63.1H99.4C116.9,59.4,126.1,46.3,126.1,32.1z M96.7,78.1c0,4.6-1.2,7.9-3.9,10.2 c-7.9,6-17.7,8.9-29.6,8.9c-11.9,0-21.8-3-29.7-8.9c-2.6-2.3-4-5.6-4-10.2V48.4c0-4.6,1.4-7.9,4-10.2c7.7-6,17.5-8.9,29.7-8.9 h33.5v33.8V78.1z"></path> <path class="st0" d="M310.8,21.8c-4.7,3.3-7.7,6.5-9.1,9.8c-1.4,3.3-2.1,8.6-2.1,15.8v32.1c0,7,0.7,12.3,2.1,15.6 c1.4,3.3,4.4,6.7,9.1,10c13.9,9.8,31.6,14.7,53,14.7c15.1,0,28.4-1.6,40-4.7V91.4c-14.2,3.3-27.4,5.1-39.5,5.1 c-13.5,0-23.9-2.8-31-8.4c-2.8-2.3-4.2-5.8-4.2-10.7V49.5c0-4.9,1.4-8.4,4.2-10.7c7.4-5.8,17.7-8.6,31-8.6 c11.7,0,24.9,1.8,39.5,5.3V11.8c-11.2-3.3-24.6-5.1-40-5.1C342.8,6.7,325,11.8,310.8,21.8z"></path> <path class="st0" d="M558.5,118.1L517.1,8.4h-29.3c-10.6,0-20.2,6.6-24,16.6l-35.1,93.1h30.3l7.9-21l8.4-22.3L491,33.2h4.9 l15.8,41.6l1.4,3.6h-33c0,0.1,0,2,0,2.2c20.5,4.4,39,16.7,47.2,35.5c0,0,0,0,0,0l0.8,2H558.5z"></path> <path class="st0" d="M254.9,96.5c-2.6-3-4.8-6.2-6.8-9.6c0,0,0,0,0-0.1c3.7-1.7,7-3.8,10-6.3c4.2-3.3,6.8-6.8,8.1-10.2 c1.2-3.3,1.8-8.6,1.8-16v-6.7c0-7.4-0.5-12.8-1.8-16.2c-1.2-3.3-3.9-6.7-8.1-10c-10.9-8.8-25.4-13.2-43.9-13.2h-53.7v109.6h29.3 V93.5h24.4c3,0,5.1,0,6.3-0.2l15.8,24.7H292v-2.2C277.8,112.9,264,107.1,254.9,96.5z M238.6,53.2c0,5.1-1.6,8.8-4.6,11.4 c-5.4,4.4-13.2,6.7-23.2,6.7h-21V30.9h21c10,0,17.7,2.1,23.2,6.5c3,2.6,4.6,6.5,4.6,11.4V53.2z"></path> </g> <g> <path class="st1" d="M159.1,161.9c-1.3-1.2-3-1.7-4.8-1.8h-10.1v19.6h10.1h0c1.9,0,3.5-0.6,4.8-1.7c1.2-1,2.1-2.4,2.7-4.1 c0.4-1.2,0.6-2.5,0.6-3.9c0-1.4-0.2-2.7-0.6-3.9C161.2,164.4,160.3,162.9,159.1,161.9z M147.2,163.2h7c1.1,0,2.1,0.4,2.9,1.1 c0.8,0.7,1.3,1.6,1.7,2.8c0.3,0.9,0.5,1.9,0.5,3c0,1-0.2,2-0.4,2.9c-0.4,1.1-0.9,2-1.7,2.7c-0.8,0.7-1.8,1.1-2.9,1.1h-7V163.2z"></path> <rect x="169.2" y="160.1" class="st1" width="3.1" height="19.6"></rect> <path class="st1" d="M194.9,161c-1.4-0.7-3.5-1.1-6.4-1.1c-2.9,0-5.1,0.4-6.5,1.2c-1.7,0.9-2.5,2.5-2.5,4.6c0,2.2,0.9,3.7,2.7,4.6 c1.4,0.7,3.5,1.1,6.4,1.1c2.3,0,4,0.3,4.9,0.8c0.7,0.4,1,1,1,2c0,1-0.3,1.7-1,2c-1,0.5-2.6,0.8-4.9,0.8c-2.4,0-4.1-0.3-5-0.8 c-0.6-0.4-0.9-1-0.9-1.9v-0.4h-3.1v0.4c0,2.1,0.8,3.7,2.5,4.6c1.4,0.8,3.6,1.2,6.5,1.2c2.8,0,4.9-0.4,6.4-1.1 c1.8-0.9,2.7-2.5,2.7-4.8c0-2.2-0.9-3.8-2.7-4.8c-1.4-0.7-3.5-1.1-6.4-1.1c-2.3,0-4-0.3-5-0.7c-0.7-0.4-1-1-1-1.9 c0-0.9,0.3-1.5,0.9-1.9c1-0.5,2.7-0.8,5-0.8c2.3,0,4,0.3,4.9,0.8c0.7,0.4,1,1,1,2v0.4h3.1v-0.4C197.6,163.5,196.7,161.9,194.9,161 z"></path> <polygon class="st1" points="202.9,163.2 210.3,163.2 210.3,179.7 213.4,179.7 213.4,163.2 220.8,163.2 220.8,160.1 202.9,160.1 "></polygon> <path class="st1" d="M241.1,173.1c-0.5-0.6-1.1-1.2-1.8-1.7c0.5-0.1,1-0.3,1.5-0.5c1.7-0.8,2.5-2.4,2.6-4.8c0-2.2-0.8-3.8-2.3-4.8 c-1.3-0.8-3.3-1.3-6-1.3h-8.7v19.6h3.1v-7.6h5.4c1.4,0.4,2.6,1.4,3.7,2.8c0.6,0.9,1.4,2.3,2.3,4.3l0.2,0.4h3.4l-0.8-1.7 C242.8,175.8,241.9,174.2,241.1,173.1z M229.6,163.2h5.6c2.1,0,3.5,0.3,4.3,0.8c0.6,0.4,0.9,1.1,0.9,2.2c0,1.1-0.3,1.8-0.9,2.2 c-0.8,0.5-2.2,0.8-4.2,0.8h-5.7V163.2z"></path> <rect x="250" y="160.1" class="st1" width="3.1" height="19.6"></rect> <path class="st1" d="M274.2,169.3c0.4-0.2,0.7-0.4,1-0.7c0.7-0.7,1.1-1.8,1.1-3.1c0-1.9-0.7-3.4-2.1-4.2c-1.1-0.7-2.8-1.1-5.2-1.1 l-8.3,0v19.6h8.9h0c2.4,0,4.2-0.5,5.3-1.3c1.3-1,2-2.6,2-4.7c0-1.6-0.4-2.8-1.2-3.6C275.3,169.8,274.8,169.5,274.2,169.3z M273.2,165.5c0,0.8-0.2,1.4-0.6,1.7c-0.6,0.4-1.8,0.6-3.5,0.6h-5.3v-4.6h5.3c1.8,0,3,0.2,3.6,0.6 C273,164.1,273.2,164.6,273.2,165.5z M263.8,170.8h5.9c1.7,0,2.8,0.3,3.4,0.7c0.5,0.4,0.7,1.1,0.7,2.2c0,1.1-0.2,1.9-0.7,2.2 c-0.6,0.4-1.8,0.7-3.5,0.7h-5.9V170.8z"></path> <path class="st1" d="M298.7,169.1c0,3.1-0.5,5.2-1.6,6.3c-1,1-2.6,1.6-4.7,1.6c-2.2,0-3.8-0.5-4.7-1.6c-1.1-1.1-1.6-3.2-1.6-6.3 v-9h-3.1v9c0,3.9,0.8,6.7,2.4,8.4c1.6,1.7,3.9,2.5,7,2.5c3.1,0,5.4-0.9,7-2.5c1.6-1.7,2.4-4.6,2.4-8.4v-9h-3.1V169.1z"></path> <rect x="309.3" y="160.1" class="st1" width="3.1" height="19.6"></rect> <path class="st1" d="M335,161.9c-1.3-1.2-3-1.7-4.8-1.8H320v19.6h10.1h0c1.9,0,3.5-0.6,4.8-1.7c1.2-1,2.1-2.4,2.7-4.1 c0.4-1.2,0.6-2.5,0.6-3.9c0-1.4-0.2-2.7-0.6-3.9C337.1,164.4,336.2,162.9,335,161.9z M323.1,163.2h7c1.1,0,2.1,0.4,2.9,1.1 c0.8,0.7,1.3,1.6,1.7,2.8c0.3,0.9,0.5,1.9,0.5,3c0,1-0.2,2-0.4,2.9c-0.4,1.1-0.9,2-1.7,2.7c-0.8,0.7-1.8,1.1-2.9,1.1h-7V163.2z"></path> <path class="st1" d="M355,159.8c-3.6,0-6.2,0.8-7.8,2.5c-1.5,1.6-2.3,4.1-2.3,7.6c0,3.6,0.8,6.2,2.5,7.8c1.6,1.5,4.1,2.3,7.6,2.3 c3.5,0,6-0.8,7.6-2.3c1.7-1.6,2.5-4.2,2.5-7.8c0-3.6-0.8-6.2-2.5-7.8C361,160.6,358.4,159.8,355,159.8z M355,177 c-2.7,0-4.5-0.5-5.5-1.4c-1-1-1.6-2.9-1.6-5.6c0-2.7,0.5-4.5,1.4-5.5c1-1,2.9-1.6,5.6-1.6c2.6,0,4.5,0.5,5.5,1.4 c1,1,1.6,2.9,1.6,5.6c0,2.7-0.5,4.6-1.6,5.6C359.4,176.5,357.6,177,355,177z"></path> <path class="st1" d="M387,173.1c-0.5-0.6-1.1-1.2-1.8-1.7c0.5-0.1,1-0.3,1.5-0.5c1.7-0.8,2.5-2.4,2.6-4.8c0-2.2-0.8-3.8-2.3-4.8 c-1.3-0.8-3.3-1.3-6-1.3h-8.7v19.6h3.1v-7.6h5.4c1.4,0.4,2.6,1.4,3.7,2.8c0.6,0.9,1.4,2.3,2.3,4.3l0.2,0.4h3.4l-0.8-1.7 C388.7,175.8,387.8,174.2,387,173.1z M375.5,163.2h5.6c2.1,0,3.5,0.3,4.3,0.8c0.6,0.4,0.9,1.1,0.9,2.2c0,1.1-0.3,1.8-0.9,2.2 c-0.8,0.5-2.2,0.8-4.2,0.8h-5.7V163.2z"></path> <path class="st1" d="M405.5,160.1h-3l-8.6,19.6h3.3l2.2-5h9.1l2.2,5h3.3L405.5,160.1z M400.8,171.6l3.2-7.3l3.2,7.3H400.8z"></path> </g> <g> <path class="st1" d="M558.5,19.2c-5.3,0-9.6-4.3-9.6-9.6s4.3-9.6,9.6-9.6s9.6,4.3,9.6,9.6S563.8,19.2,558.5,19.2L558.5,19.2z M558.5,1.2c-4.6,0-8.4,3.8-8.4,8.4s3.8,8.4,8.4,8.4s8.4-3.8,8.4-8.4S563.2,1.2,558.5,1.2L558.5,1.2z M558.5,1.2"></path> <path class="st1" d="M560.9,14.4c0-1.6-0.9-3-2.4-3.6l-1.2-0.5v4.2h-1.2v-9c0-0.3,0.3-0.6,0.6-0.6h2.7c1.5,0,2.7,1.2,2.7,2.7 c0,1.3-1,2.4-2.2,2.7c1.4,0.9,2.2,2.5,2.2,4.2L560.9,14.4L560.9,14.4z M557.3,9h2.1c0.8,0,1.5-0.7,1.5-1.5S560.2,6,559.4,6h-2.1V9 z M557.3,9"></path> </g> </g> </svg> 