<?xml version="1.0" encoding="UTF-8"?> <!-- Generator: Adobe Illustrator 24.2.1, SVG Export Plug-In . SVG Version: 6.00 Build 0) --> <svg xmlns="http://www.w3.org/2000/svg" xmlns:xlink="http://www.w3.org/1999/xlink" version="1.1" id="Camada_1" x="0px" y="0px" viewBox="0 0 554.3 113.7" style="enable-background:new 0 0 554.3 113.7;" xml:space="preserve"> <style type="text/css"> .st0{fill:#FF1A06;} </style> <g> <path class="st0" d="M125.2,26.1V0H62.7C42.1,0,24.4,5.4,9.4,16.4c-3.8,3-6.3,5.9-7.5,9.2C0.7,28.9,0,34.1,0,41.1v31.9 c0,7,0.7,12,1.9,15.3c1.2,3.3,3.7,6.4,7.5,9.4c14.8,10.6,32.6,16,53.3,16c20.7,0,38.3-5.4,53.1-16c3.8-3,6.4-6.1,7.7-9.4 c1.2-3.3,1.7-8.4,1.7-15.3V56.8H98.7C116,53.2,125.2,40.2,125.2,26.1z M95.9,71.7c0,4.5-1.2,7.8-3.8,10.1 c-7.8,5.9-17.6,8.9-29.4,8.9c-11.8,0-21.6-3-29.4-8.9c-2.6-2.3-4-5.6-4-10.1V42.3c0-4.5,1.4-7.8,4-10.1c7.7-5.9,17.4-8.9,29.4-8.9 h33.2v33.5V71.7z"></path> <path class="st0" d="M308.5,15.8c-4.7,3.3-7.7,6.4-9,9.7c-1.4,3.3-2.1,8.5-2.1,15.7v31.8c0,7,0.7,12.2,2.1,15.5 c1.4,3.3,4.4,6.6,9,9.9c13.8,9.7,31.3,14.6,52.6,14.6c15,0,28.2-1.6,39.7-4.7V84.9c-14.1,3.3-27.1,5.1-39.2,5.1 c-13.4,0-23.7-2.8-30.8-8.4c-2.8-2.3-4.2-5.8-4.2-10.6V43.3c0-4.9,1.4-8.3,4.2-10.6c7.3-5.8,17.6-8.5,30.8-8.5 c11.7,0,24.7,1.7,39.2,5.2V5.9c-11.1-3.3-24.4-5.1-39.7-5.1C340.2,0.9,322.6,5.9,308.5,15.8z"></path> <path class="st0" d="M554.3,111.4L513.2,2.6h-29.1c-10.6,0-20,6.5-23.8,16.4l-34.9,92.4h30.1l7.8-20.9l8.4-22.1l15.5-41.3h4.9 l15.7,41.3l1.4,3.6h-32.8c0,0.1,0,2,0,2.2c20.3,4.4,38.8,16.6,46.9,35.2c0,0,0,0,0,0l0.8,2H554.3z"></path> <path class="st0" d="M253,90c-2.5-3-4.8-6.2-6.8-9.5c0,0,0,0,0-0.1c3.7-1.7,7-3.8,9.9-6.3c4.2-3.3,6.8-6.8,8-10.1 c1.2-3.3,1.7-8.5,1.7-15.8v-6.6c0-7.3-0.5-12.7-1.7-16c-1.2-3.3-3.8-6.6-8-9.9C245.3,7,230.8,2.6,212.6,2.6h-53.3v108.8h29.1V87 h24.2c3,0,5,0,6.3-0.2l15.7,24.5h55.3v-2.2C275.7,106.2,262,100.6,253,90z M236.8,47c0,5-1.6,8.7-4.5,11.3 c-5.4,4.4-13.1,6.6-23,6.6h-20.9v-40h20.9c9.9,0,17.6,2.1,23,6.4c3,2.6,4.5,6.4,4.5,11.3V47z"></path> </g> </svg> 